<svg width="44" height="44" viewBox="0 0 44 44" fill="none" xmlns="http://www.w3.org/2000/svg">
<g clip-path="url(#clip0_2422:9941)">
<path opacity="0.4" d="M31.797 0.150391H11.9895C4.77131 0.150391 0.681641 4.24006 0.681641 11.4582V31.2469C0.681641 38.4651 4.77131 42.5548 11.9895 42.5548H31.797C39.0152 42.5548 43.086 38.4651 43.086 31.2469V11.4582C43.086 4.24006 39.0152 0.150391 31.797 0.150391Z" fill="white"/>
<path d="M12.0642 15.7734C11.1031 15.7734 10.3115 16.5649 10.3115 17.5449V32.1132C10.3115 33.0744 11.1031 33.8659 12.0642 33.8659C13.0442 33.8659 13.8358 33.0744 13.8358 32.1132V17.5449C13.8358 16.5649 13.0442 15.7734 12.0642 15.7734Z" fill="white"/>
<path d="M21.9588 8.82031C20.9976 8.82031 20.2061 9.61186 20.2061 10.5919V32.1144C20.2061 33.0756 20.9976 33.8672 21.9588 33.8672C22.9388 33.8672 23.7303 33.0756 23.7303 32.1144V10.5919C23.7303 9.61186 22.9388 8.82031 21.9588 8.82031Z" fill="white"/>
<path d="M31.7208 23.4629C30.7408 23.4629 29.9492 24.2545 29.9492 25.2345V32.1134C29.9492 33.0746 30.7408 33.8661 31.7019 33.8661C32.6819 33.8661 33.4735 33.0746 33.4735 32.1134V25.2345C33.4735 24.2545 32.6819 23.4629 31.7208 23.4629Z" fill="white"/>
</g>
<defs>
<clipPath id="clip0_2422:9941">
<rect width="43" height="43" fill="white" transform="translate(0.347656 0.150391)"/>
</clipPath>
</defs>
</svg>
