<svg width="48" height="40" viewBox="0 0 48 40" fill="none" xmlns="http://www.w3.org/2000/svg">
<g clip-path="url(#clip0_2422:9911)">
<path d="M35.4297 8.52654C33.4005 6.06861 30.6621 4.2968 27.5886 3.45294C24.515 2.60907 21.2559 2.73428 18.2561 3.81147C15.2562 4.88866 12.6619 6.86535 10.8273 9.4717C8.9926 12.0781 8.00695 15.1871 8.00488 18.3744V22.6031" stroke="white" stroke-opacity="0.4" stroke-width="4.33333" stroke-linecap="round" stroke-linejoin="round"/>
<path d="M12.9277 31.5828C15.0557 33.8377 17.8116 35.4018 20.8386 36.0727C23.8656 36.7435 27.0242 36.4902 29.9056 35.3456C32.7871 34.2009 35.2584 32.2176 36.9999 29.6523C38.7413 27.0872 39.6726 24.0584 39.6732 20.9579V18.1426" stroke="white" stroke-opacity="0.4" stroke-width="4.33333" stroke-linecap="round" stroke-linejoin="round"/>
<path d="M15.0147 15.6779C15.0059 15.8475 14.9499 16.0121 14.8501 16.1551L8.28998 25.4485C8.10902 25.7037 7.81114 25.8496 7.49869 25.8332C7.18624 25.8168 6.90525 25.6406 6.75196 25.3678L1.19922 15.4396C1.03828 15.1507 1.04591 14.7965 1.22215 14.5155C1.39724 14.2332 1.71061 14.0699 2.04122 14.0872L14.1541 14.722C14.4846 14.7394 14.7792 14.9345 14.9239 15.2335C14.993 15.3744 15.0226 15.5278 15.0147 15.6779Z" fill="white"/>
<path d="M32.3033 24.1395C32.3092 23.9721 32.3616 23.8087 32.4575 23.666L38.7697 14.384C38.9439 14.1291 39.2353 13.98 39.5438 13.9908C39.8524 14.0015 40.1326 14.1706 40.2886 14.437L45.9379 24.1367C46.1017 24.419 46.1003 24.7687 45.9312 25.0489C45.7634 25.3304 45.457 25.4969 45.1305 25.4855L33.1689 25.0678C32.8424 25.0564 32.5484 24.8689 32.4006 24.5764C32.33 24.4386 32.2982 24.2878 32.3033 24.1395Z" fill="white"/>
</g>
<defs>
<clipPath id="clip0_2422:9911">
<rect width="46.8" height="39" fill="white" transform="translate(0.347656 0.427734)"/>
</clipPath>
</defs>
</svg>
