<svg width="36" height="36" viewBox="0 0 36 36" fill="none" xmlns="http://www.w3.org/2000/svg">
<g clip-path="url(#clip0_2429:10301)">
<path opacity="0.4" d="M2.3689 8.04883H22.4313C23.3594 8.04883 24.1127 8.80211 24.1127 9.73022C24.1127 10.6583 23.3594 11.4116 22.4313 11.4116H2.3689C1.44077 11.4116 0.6875 10.6583 0.6875 9.73022C0.6875 8.80211 1.44077 8.04883 2.3689 8.04883Z" fill="white"/>
<path opacity="0.4" d="M13.5574 24.4004H33.6198C34.5479 24.4004 35.3012 25.1537 35.3012 26.0818C35.3012 27.0099 34.5479 27.7632 33.6198 27.7632H13.5574C12.6292 27.7632 11.876 27.0099 11.876 26.0818C11.876 25.1537 12.6292 24.4004 13.5574 24.4004Z" fill="white"/>
<mask id="mask0_2429:10301" style="mask-type:alpha" maskUnits="userSpaceOnUse" x="20" y="0" width="16" height="19">
<path fill-rule="evenodd" clip-rule="evenodd" d="M20.749 18.974V0.867188H35.2168V18.974H20.749Z" fill="white"/>
</mask>
<g mask="url(#mask0_2429:10301)">
<path d="M21.8846 1.02148C22.0965 1.02148 22.3054 1.08053 22.4901 1.1956L34.5056 8.76734C34.8356 8.97625 35.0371 9.33816 35.0371 9.72872C35.0371 10.1194 34.8356 10.4813 34.5056 10.6902L22.4901 18.2619C22.1404 18.4814 21.6983 18.4951 21.3365 18.2937C20.9731 18.0938 20.749 17.7138 20.749 17.3005V2.15702C20.749 1.74368 20.9731 1.36366 21.3365 1.1638C21.5075 1.06842 21.6968 1.02148 21.8846 1.02148Z" fill="white"/>
</g>
<mask id="mask1_2429:10301" style="mask-type:alpha" maskUnits="userSpaceOnUse" x="0" y="16" width="15" height="20">
<path fill-rule="evenodd" clip-rule="evenodd" d="M14.8155 16.9844V35.0911H0.347656V16.9844H14.8155Z" fill="white"/>
</mask>
<g mask="url(#mask1_2429:10301)">
<path d="M13.6808 34.9361C13.4688 34.9361 13.2599 34.877 13.0752 34.762L1.05975 27.1902C0.729689 26.9813 0.52832 26.6195 0.52832 26.2288C0.52832 25.8382 0.729689 25.4764 1.05975 25.2675L13.0752 17.6957C13.425 17.4761 13.8671 17.4625 14.2289 17.6639C14.5923 17.8637 14.8163 18.2437 14.8163 18.6571V33.8006C14.8163 34.2139 14.5923 34.5939 14.2289 34.7938C14.0579 34.8892 13.8685 34.9361 13.6808 34.9361Z" fill="white"/>
</g>
</g>
<defs>
<clipPath id="clip0_2429:10301">
<rect width="35.4084" height="34.5849" fill="white" transform="translate(0.347656 0.519531)"/>
</clipPath>
</defs>
</svg>
