<svg width="330" height="214" viewBox="0 0 330 214" fill="none" xmlns="http://www.w3.org/2000/svg">
<g filter="url(#filter0_i_2429:10316)">
<rect x="0.245117" y="0.636719" width="329.38" height="102.108" rx="4.94071" fill="#15161D"/>
</g>
<g filter="url(#filter1_i_2429:10316)">
<rect x="0.246094" y="110.979" width="329.38" height="102.108" rx="4.94071" fill="#15161D"/>
</g>
<path d="M96.5309 30.2812L99.3325 27.1933H93.7293L96.5309 30.2812Z" fill="white"/>
<path d="M96.5309 142.27L99.3325 139.182H93.7293L96.5309 142.27Z" fill="white"/>
<path d="M217.213 27.0644C217.213 28.2766 216.64 29.627 215.494 31.1158C214.347 32.6046 212.746 34.2252 210.691 35.9775H217.648V37.4004H208.873V35.9775C209.123 35.7403 209.466 35.4307 209.901 35.0486C210.335 34.6665 210.803 34.2449 211.304 33.7838C211.804 33.3095 212.312 32.8022 212.826 32.2621C213.353 31.7219 213.827 31.1685 214.248 30.602C214.67 30.0354 215.013 29.4689 215.276 28.9024C215.54 28.3358 215.671 27.7891 215.671 27.2621C215.671 26.4715 215.461 25.8523 215.039 25.4044C214.631 24.9432 214.011 24.7127 213.181 24.7127C212.47 24.7127 211.87 24.7917 211.383 24.9498C210.895 25.1079 210.454 25.3385 210.059 25.6415L209.387 24.5546C209.98 24.1329 210.606 23.8233 211.264 23.6257C211.936 23.4281 212.667 23.3293 213.458 23.3293C214.696 23.3293 215.632 23.6652 216.264 24.3372C216.897 25.0091 217.213 25.9182 217.213 27.0644ZM224.241 36.2541C224.741 36.2541 225.203 36.1949 225.624 36.0763C226.046 35.9445 226.401 35.7535 226.691 35.5032C226.994 35.2397 227.225 34.9169 227.383 34.5348C227.554 34.1527 227.64 33.7047 227.64 33.1909C227.64 32.2423 227.297 31.5242 226.612 31.0368C225.94 30.5361 225.018 30.2858 223.845 30.2858L221.988 30.3846V23.5664H228.766V24.9893H223.47V29.0012L224.458 28.9617C225.921 28.9617 227.073 29.3174 227.917 30.0289C228.76 30.7403 229.181 31.7548 229.181 33.0723C229.181 33.8101 229.05 34.4623 228.786 35.0289C228.536 35.5954 228.187 36.0763 227.739 36.4715C227.291 36.8536 226.757 37.1435 226.138 37.3411C225.532 37.5387 224.867 37.6375 224.142 37.6375C223.747 37.6375 223.371 37.6046 223.015 37.5387C222.66 37.486 222.337 37.4202 222.047 37.3411C221.757 37.2489 221.5 37.1566 221.276 37.0644C221.065 36.959 220.914 36.8668 220.822 36.7877L221.454 35.5032C221.678 35.6349 222.021 35.793 222.482 35.9775C222.943 36.1619 223.529 36.2541 224.241 36.2541ZM235.557 36.3134C235.557 35.9182 235.682 35.602 235.933 35.3648C236.196 35.1145 236.532 34.9893 236.941 34.9893C237.441 34.9893 237.83 35.1672 238.107 35.5229C238.383 35.8655 238.522 36.353 238.522 36.9854C238.522 37.4992 238.436 37.9472 238.265 38.3292C238.093 38.7245 237.876 39.0539 237.612 39.3174C237.362 39.5941 237.085 39.8115 236.782 39.9696C236.493 40.1408 236.222 40.266 235.972 40.3451L235.478 39.5743C235.952 39.3898 236.361 39.1263 236.703 38.7838C237.046 38.4412 237.217 38.0262 237.217 37.5387C237.033 37.5783 236.888 37.598 236.782 37.598C236.4 37.598 236.097 37.4926 235.873 37.2818C235.663 37.0578 235.557 36.735 235.557 36.3134ZM243.968 30.4834C243.968 29.3635 244.067 28.3622 244.265 27.4795C244.462 26.5835 244.759 25.8325 245.154 25.2265C245.549 24.6073 246.05 24.1395 246.656 23.8233C247.262 23.4939 247.98 23.3293 248.81 23.3293C249.693 23.3293 250.437 23.4874 251.043 23.8036C251.663 24.1198 252.163 24.5809 252.545 25.187C252.928 25.793 253.204 26.544 253.375 27.4399C253.547 28.3227 253.632 29.3372 253.632 30.4834C253.632 31.6033 253.534 32.6112 253.336 33.5071C253.138 34.3899 252.842 35.1408 252.447 35.7601C252.051 36.3661 251.551 36.8339 250.945 37.1632C250.339 37.4794 249.621 37.6375 248.79 37.6375C247.921 37.6375 247.177 37.4663 246.557 37.1237C245.951 36.768 245.451 36.2739 245.055 35.6415C244.673 35.0091 244.397 34.2581 244.225 33.3885C244.054 32.5058 243.968 31.5374 243.968 30.4834ZM252.012 30.4834C252.012 29.7851 251.972 29.1198 251.893 28.4874L246.024 33.8431C246.248 34.5941 246.584 35.1935 247.032 35.6415C247.48 36.0895 248.066 36.3134 248.79 36.3134C249.95 36.3134 250.773 35.8325 251.261 34.8707C251.761 33.909 252.012 32.4465 252.012 30.4834ZM245.609 30.4834C245.609 30.8128 245.615 31.129 245.628 31.432C245.655 31.735 245.681 32.0315 245.707 32.3213L251.597 26.9854C251.373 26.2739 251.037 25.7074 250.589 25.2858C250.154 24.8642 249.561 24.6534 248.81 24.6534C247.638 24.6534 246.808 25.1408 246.32 26.1158C245.846 27.0776 245.609 28.5335 245.609 30.4834ZM255.818 30.4834C255.818 29.3635 255.917 28.3622 256.115 27.4795C256.312 26.5835 256.609 25.8325 257.004 25.2265C257.399 24.6073 257.9 24.1395 258.506 23.8233C259.112 23.4939 259.83 23.3293 260.66 23.3293C261.543 23.3293 262.287 23.4874 262.893 23.8036C263.513 24.1198 264.013 24.5809 264.395 25.187C264.777 25.793 265.054 26.544 265.225 27.4399C265.397 28.3227 265.482 29.3372 265.482 30.4834C265.482 31.6033 265.384 32.6112 265.186 33.5071C264.988 34.3899 264.692 35.1408 264.297 35.7601C263.901 36.3661 263.401 36.8339 262.795 37.1632C262.189 37.4794 261.47 37.6375 260.64 37.6375C259.771 37.6375 259.026 37.4663 258.407 37.1237C257.801 36.768 257.301 36.2739 256.905 35.6415C256.523 35.0091 256.247 34.2581 256.075 33.3885C255.904 32.5058 255.818 31.5374 255.818 30.4834ZM263.862 30.4834C263.862 29.7851 263.822 29.1198 263.743 28.4874L257.874 33.8431C258.098 34.5941 258.434 35.1935 258.882 35.6415C259.33 36.0895 259.916 36.3134 260.64 36.3134C261.8 36.3134 262.623 35.8325 263.111 34.8707C263.611 33.909 263.862 32.4465 263.862 30.4834ZM257.459 30.4834C257.459 30.8128 257.465 31.129 257.478 31.432C257.505 31.735 257.531 32.0315 257.557 32.3213L263.447 26.9854C263.223 26.2739 262.887 25.7074 262.439 25.2858C262.004 24.8642 261.411 24.6534 260.66 24.6534C259.488 24.6534 258.658 25.1408 258.17 26.1158C257.696 27.0776 257.459 28.5335 257.459 30.4834ZM267.668 30.4834C267.668 29.3635 267.767 28.3622 267.965 27.4795C268.162 26.5835 268.459 25.8325 268.854 25.2265C269.249 24.6073 269.75 24.1395 270.356 23.8233C270.962 23.4939 271.68 23.3293 272.51 23.3293C273.393 23.3293 274.137 23.4874 274.743 23.8036C275.363 24.1198 275.863 24.5809 276.245 25.187C276.627 25.793 276.904 26.544 277.075 27.4399C277.247 28.3227 277.332 29.3372 277.332 30.4834C277.332 31.6033 277.234 32.6112 277.036 33.5071C276.838 34.3899 276.542 35.1408 276.147 35.7601C275.751 36.3661 275.251 36.8339 274.645 37.1632C274.039 37.4794 273.32 37.6375 272.49 37.6375C271.621 37.6375 270.876 37.4663 270.257 37.1237C269.651 36.768 269.151 36.2739 268.755 35.6415C268.373 35.0091 268.096 34.2581 267.925 33.3885C267.754 32.5058 267.668 31.5374 267.668 30.4834ZM275.712 30.4834C275.712 29.7851 275.672 29.1198 275.593 28.4874L269.724 33.8431C269.948 34.5941 270.284 35.1935 270.732 35.6415C271.179 36.0895 271.766 36.3134 272.49 36.3134C273.65 36.3134 274.473 35.8325 274.961 34.8707C275.461 33.909 275.712 32.4465 275.712 30.4834ZM269.309 30.4834C269.309 30.8128 269.315 31.129 269.328 31.432C269.355 31.735 269.381 32.0315 269.407 32.3213L275.297 26.9854C275.073 26.2739 274.737 25.7074 274.289 25.2858C273.854 24.8642 273.261 24.6534 272.51 24.6534C271.338 24.6534 270.508 25.1408 270.02 26.1158C269.546 27.0776 269.309 28.5335 269.309 30.4834ZM283.036 36.3134C283.036 35.8918 283.155 35.569 283.392 35.3451C283.629 35.1079 283.945 34.9893 284.34 34.9893C284.762 34.9893 285.091 35.1079 285.329 35.3451C285.566 35.569 285.684 35.8918 285.684 36.3134C285.684 36.6955 285.566 37.0117 285.329 37.2621C285.091 37.5124 284.762 37.6375 284.34 37.6375C283.945 37.6375 283.629 37.5124 283.392 37.2621C283.155 37.0117 283.036 36.6955 283.036 36.3134ZM291.368 30.4834C291.368 29.3635 291.467 28.3622 291.665 27.4795C291.862 26.5835 292.159 25.8325 292.554 25.2265C292.949 24.6073 293.45 24.1395 294.056 23.8233C294.662 23.4939 295.38 23.3293 296.21 23.3293C297.093 23.3293 297.837 23.4874 298.443 23.8036C299.063 24.1198 299.563 24.5809 299.945 25.187C300.327 25.793 300.604 26.544 300.775 27.4399C300.947 28.3227 301.032 29.3372 301.032 30.4834C301.032 31.6033 300.933 32.6112 300.736 33.5071C300.538 34.3899 300.242 35.1408 299.847 35.7601C299.451 36.3661 298.951 36.8339 298.345 37.1632C297.738 37.4794 297.02 37.6375 296.19 37.6375C295.321 37.6375 294.576 37.4663 293.957 37.1237C293.351 36.768 292.85 36.2739 292.455 35.6415C292.073 35.0091 291.796 34.2581 291.625 33.3885C291.454 32.5058 291.368 31.5374 291.368 30.4834ZM299.412 30.4834C299.412 29.7851 299.372 29.1198 299.293 28.4874L293.424 33.8431C293.648 34.5941 293.984 35.1935 294.431 35.6415C294.879 36.0895 295.466 36.3134 296.19 36.3134C297.35 36.3134 298.173 35.8325 298.661 34.8707C299.161 33.909 299.412 32.4465 299.412 30.4834ZM293.009 30.4834C293.009 30.8128 293.015 31.129 293.028 31.432C293.055 31.735 293.081 32.0315 293.107 32.3213L298.997 26.9854C298.773 26.2739 298.437 25.7074 297.989 25.2858C297.554 24.8642 296.961 24.6534 296.21 24.6534C295.038 24.6534 294.208 25.1408 293.72 26.1158C293.246 27.0776 293.009 28.5335 293.009 30.4834ZM303.218 30.4834C303.218 29.3635 303.317 28.3622 303.515 27.4795C303.712 26.5835 304.009 25.8325 304.404 25.2265C304.799 24.6073 305.3 24.1395 305.906 23.8233C306.512 23.4939 307.23 23.3293 308.06 23.3293C308.943 23.3293 309.687 23.4874 310.293 23.8036C310.913 24.1198 311.413 24.5809 311.795 25.187C312.177 25.793 312.454 26.544 312.625 27.4399C312.797 28.3227 312.882 29.3372 312.882 30.4834C312.882 31.6033 312.783 32.6112 312.586 33.5071C312.388 34.3899 312.092 35.1408 311.696 35.7601C311.301 36.3661 310.801 36.8339 310.195 37.1632C309.588 37.4794 308.87 37.6375 308.04 37.6375C307.171 37.6375 306.426 37.4663 305.807 37.1237C305.201 36.768 304.7 36.2739 304.305 35.6415C303.923 35.0091 303.646 34.2581 303.475 33.3885C303.304 32.5058 303.218 31.5374 303.218 30.4834ZM311.262 30.4834C311.262 29.7851 311.222 29.1198 311.143 28.4874L305.274 33.8431C305.498 34.5941 305.834 35.1935 306.281 35.6415C306.729 36.0895 307.316 36.3134 308.04 36.3134C309.2 36.3134 310.023 35.8325 310.511 34.8707C311.011 33.909 311.262 32.4465 311.262 30.4834ZM304.859 30.4834C304.859 30.8128 304.865 31.129 304.878 31.432C304.905 31.735 304.931 32.0315 304.957 32.3213L310.847 26.9854C310.623 26.2739 310.287 25.7074 309.839 25.2858C309.404 24.8642 308.811 24.6534 308.06 24.6534C306.888 24.6534 306.057 25.1408 305.57 26.1158C305.096 27.0776 304.859 28.5335 304.859 30.4834Z" fill="#515369"/>
<path d="M57.4564 39.7027V43.5684C57.4564 44.3814 56.8949 44.9662 55.9826 44.9662C55.0731 44.9662 54.5088 44.3814 54.5088 43.5684V39.7027H53.6052V43.6416C53.6052 44.899 54.5468 45.7908 55.9826 45.7908C57.4183 45.7908 58.3629 44.899 58.3629 43.6416V39.7027H57.4564ZM62.9429 41.2759H63.8143C63.788 40.3167 62.9399 39.6208 61.7235 39.6208C60.5216 39.6208 59.6005 40.308 59.6005 41.3402C59.6005 42.1736 60.1971 42.6619 61.1591 42.9222L61.8668 43.1152C62.5072 43.2848 63.0014 43.4953 63.0014 44.0275C63.0014 44.6124 62.4428 44.9984 61.6738 44.9984C60.9778 44.9984 60.3988 44.6884 60.3462 44.0363H59.4397C59.4982 45.1212 60.3374 45.7908 61.6796 45.7908C63.0862 45.7908 63.8962 45.051 63.8962 44.0363C63.8962 42.9573 62.9341 42.5391 62.1738 42.352L61.589 42.1999C61.1211 42.08 60.4982 41.8607 60.5012 41.2876C60.5012 40.7788 60.9661 40.4016 61.703 40.4016C62.3902 40.4016 62.8785 40.7232 62.9429 41.2759ZM66.9146 45.6914C68.7393 45.6914 69.795 44.5597 69.795 42.6883C69.795 40.8256 68.7393 39.7027 66.9761 39.7027H64.9759V45.6914H66.9146ZM65.8795 44.9019V40.4922H66.9205C68.2305 40.4922 68.906 41.2759 68.906 42.6883C68.906 44.1065 68.2305 44.9019 66.8649 44.9019H65.8795ZM78.0719 41.6502C77.8672 40.3694 76.8642 39.6208 75.598 39.6208C74.0482 39.6208 72.9048 40.7817 72.9048 42.697C72.9048 44.6124 74.0424 45.7733 75.598 45.7733C76.9139 45.7733 77.876 44.9487 78.0719 43.7644L77.1595 43.7614C77.0046 44.5276 76.3612 44.9487 75.6039 44.9487C74.5775 44.9487 73.8026 44.1621 73.8026 42.697C73.8026 41.2437 74.5746 40.4454 75.6068 40.4454C76.37 40.4454 77.0104 40.8753 77.1595 41.6502H78.0719ZM80.9749 45.7821C82.241 45.7821 83.0686 44.8551 83.0686 43.4661C83.0686 42.0683 82.241 41.1414 80.9749 41.1414C79.7087 41.1414 78.8812 42.0683 78.8812 43.4661C78.8812 44.8551 79.7087 45.7821 80.9749 45.7821ZM80.9778 45.0481C80.1502 45.0481 79.7643 44.3258 79.7643 43.4632C79.7643 42.6035 80.1502 41.8724 80.9778 41.8724C81.7995 41.8724 82.1855 42.6035 82.1855 43.4632C82.1855 44.3258 81.7995 45.0481 80.9778 45.0481ZM84.0445 45.6914H84.9189V41.1999H84.0445V45.6914ZM84.4861 40.5068C84.7873 40.5068 85.0388 40.2729 85.0388 39.9863C85.0388 39.6997 84.7873 39.4629 84.4861 39.4629C84.182 39.4629 83.9334 39.6997 83.9334 39.9863C83.9334 40.2729 84.182 40.5068 84.4861 40.5068ZM86.9695 43.0245C86.9695 42.3081 87.4081 41.8987 88.0163 41.8987C88.6099 41.8987 88.9696 42.2877 88.9696 42.9397V45.6914H89.8439V42.8345C89.8439 41.7233 89.2328 41.1414 88.3146 41.1414C87.6391 41.1414 87.1975 41.4543 86.9899 41.9309H86.9344V41.1999H86.0951V45.6914H86.9695V43.0245Z" fill="#999999"/>
<g clip-path="url(#clip0_2429:10316)">
<path d="M34.6437 46.0082C41.0861 46.0082 46.2689 40.8253 46.2689 34.383C46.2689 27.9407 41.0861 22.7578 34.6437 22.7578C28.2014 22.7578 23.0186 27.9407 23.0186 34.383C23.0186 40.8253 28.2014 46.0082 34.6437 46.0082Z" fill="#2775CA"/>
<path d="M37.8392 36.2224C37.8392 34.5271 36.822 33.9459 34.7877 33.7037C33.3345 33.5099 33.0439 33.1224 33.0439 32.4442C33.0439 31.766 33.5283 31.3302 34.497 31.3302C35.3689 31.3302 35.8533 31.6208 36.0955 32.3474C36.144 32.4927 36.2893 32.5895 36.4346 32.5895H37.2095C37.4033 32.5895 37.5486 32.4442 37.5486 32.2505V32.2021C37.3548 31.1364 36.4829 30.313 35.3689 30.2161V29.0536C35.3689 28.8598 35.2236 28.7145 34.9815 28.666H34.2549C34.0611 28.666 33.9158 28.8113 33.8673 29.0536V30.1676C32.4142 30.3614 31.4939 31.3302 31.4939 32.5412C31.4939 34.1396 32.4627 34.7693 34.497 35.0115C35.8533 35.2537 36.2893 35.5443 36.2893 36.3194C36.2893 37.0944 35.6111 37.6272 34.6908 37.6272C33.4314 37.6272 32.9954 37.0943 32.8501 36.3677C32.8018 36.1741 32.6564 36.0771 32.5111 36.0771H31.6876C31.4939 36.0771 31.3486 36.2224 31.3486 36.4162V36.4647C31.5423 37.6756 32.3173 38.5475 33.9158 38.7897V39.9523C33.9158 40.1459 34.0611 40.2913 34.3033 40.3397H35.0298C35.2236 40.3397 35.3689 40.1944 35.4174 39.9523V38.7897C36.8705 38.5475 37.8392 37.5303 37.8392 36.2224V36.2224Z" fill="white"/>
<path d="M32.1736 41.3095C28.3954 39.9534 26.4578 35.7392 27.8626 32.0094C28.5892 29.975 30.1876 28.425 32.1736 27.6984C32.3674 27.6016 32.4642 27.4563 32.4642 27.214V26.5359C32.4642 26.3421 32.3674 26.1968 32.1736 26.1484C32.1251 26.1484 32.0282 26.1484 31.9798 26.1968C27.3782 27.6499 24.8593 32.5423 26.3125 37.1439C27.1844 39.8564 29.2673 41.9393 31.9798 42.8112C32.1736 42.908 32.3674 42.8112 32.4157 42.6174C32.4642 42.569 32.4642 42.5205 32.4642 42.4237V41.7455C32.4642 41.6002 32.3189 41.4065 32.1736 41.3095ZM37.3081 26.1968C37.1143 26.1 36.9205 26.1968 36.8721 26.3906C36.8236 26.4391 36.8236 26.4874 36.8236 26.5844V27.2625C36.8236 27.4563 36.969 27.6499 37.1143 27.7469C40.8925 29.1031 42.83 33.3172 41.4252 37.0471C40.6987 39.0815 39.1002 40.6315 37.1143 41.358C36.9205 41.4549 36.8236 41.6002 36.8236 41.8424V42.5205C36.8236 42.7143 36.9205 42.8597 37.1143 42.908C37.1627 42.908 37.2596 42.908 37.3081 42.8597C41.9097 41.4065 44.4285 36.5142 42.9753 31.9126C42.1035 29.1516 39.9721 27.0687 37.3081 26.1968V26.1968Z" fill="white"/>
</g>
<path d="M59.4637 23.0142V28.4836C59.4637 29.7118 58.6204 30.596 57.2203 30.596C55.8202 30.596 54.9768 29.7118 54.9768 28.4836V23.0142H53.9616V28.5655C53.9616 30.2849 55.247 31.5458 57.2203 31.5458C59.1935 31.5458 60.479 30.2849 60.479 28.5655V23.0142H59.4637ZM67.0916 25.1103H68.0741C68.0291 23.8453 66.8623 22.8996 65.2412 22.8996C63.6364 22.8996 62.3755 23.833 62.3755 25.2413C62.3755 26.3712 63.1942 27.0426 64.5043 27.4192L65.5359 27.714C66.4202 27.9596 67.2062 28.2707 67.2062 29.1059C67.2062 30.0229 66.322 30.6288 65.1593 30.6288C64.1604 30.6288 63.2761 30.1867 63.1942 29.2369H62.1462C62.2445 30.6124 63.358 31.5458 65.1593 31.5458C67.0916 31.5458 68.1888 30.4814 68.1888 29.1223C68.1888 27.5502 66.6986 27.0426 65.8307 26.8133L64.9792 26.5841C64.3569 26.4203 63.358 26.0928 63.358 25.1921C63.358 24.3897 64.0949 23.8002 65.2084 23.8002C66.2237 23.8002 66.9934 24.2833 67.0916 25.1103ZM72.4454 31.3984C74.9999 31.3984 76.441 29.81 76.441 27.1899C76.441 24.5863 74.9999 23.0142 72.56 23.0142H69.858V31.3984H72.4454ZM70.8733 30.4978V23.9149H72.4945C74.4595 23.9149 75.4584 25.1594 75.4584 27.1899C75.4584 29.2369 74.4595 30.4978 72.3799 30.4978H70.8733ZM84.8907 25.6343C84.5796 23.9149 83.204 22.8996 81.5174 22.8996C79.3722 22.8996 77.8165 24.5535 77.8165 27.2063C77.8165 29.8591 79.3722 31.5131 81.5174 31.5131C83.204 31.5131 84.5796 30.4978 84.8907 28.7784H83.8754C83.6298 29.941 82.6309 30.5633 81.5174 30.5633C79.9944 30.5633 78.799 29.3843 78.799 27.2063C78.799 25.0284 79.9944 23.8494 81.5174 23.8494C82.6309 23.8494 83.6298 24.4716 83.8754 25.6343H84.8907Z" fill="white"/>
<path d="M23.269 83.0996H26.0236C27.6939 83.0996 28.4483 82.268 28.4483 81.1661C28.4483 80.0538 27.6693 79.4257 26.957 79.3871V79.3169C27.6167 79.1484 28.1676 78.6993 28.1676 77.801C28.1676 76.7377 27.4307 75.9131 25.9008 75.9131H23.269V83.0996ZM24.3533 82.1697V79.8678H25.9569C26.8272 79.8678 27.3711 80.4292 27.3711 81.1135C27.3711 81.7171 26.9605 82.1697 25.9183 82.1697H24.3533ZM24.3533 79.0221V76.836H25.8341C26.6938 76.836 27.1044 77.2887 27.1044 77.8852C27.1044 78.58 26.5359 79.0221 25.806 79.0221H24.3533ZM31.2187 83.2189C32.11 83.2189 32.6118 82.7663 32.8118 82.3627H32.8539V83.0996H33.8786V79.5204C33.8786 77.9519 32.6434 77.6396 31.7872 77.6396C30.8117 77.6396 29.9134 78.0326 29.5625 79.0151L30.5485 79.2397C30.7029 78.8572 31.0959 78.4888 31.8012 78.4888C32.4785 78.4888 32.8259 78.8432 32.8259 79.4537V79.4783C32.8259 79.8608 32.4328 79.8538 31.4643 79.9661C30.4432 80.0854 29.3975 80.352 29.3975 81.5767C29.3975 82.6364 30.1941 83.2189 31.2187 83.2189ZM31.4468 82.3768C30.8538 82.3768 30.4257 82.1101 30.4257 81.5907C30.4257 81.0293 30.924 80.8293 31.531 80.7486C31.8714 80.7029 32.6785 80.6117 32.8294 80.4608V81.1556C32.8294 81.7943 32.3206 82.3768 31.4468 82.3768ZM36.3252 75.9131H35.276V83.0996H36.3252V75.9131ZM39.3053 83.2189C40.1966 83.2189 40.6983 82.7663 40.8984 82.3627H40.9405V83.0996H41.9651V79.5204C41.9651 77.9519 40.7299 77.6396 39.8737 77.6396C38.8982 77.6396 37.9999 78.0326 37.649 79.0151L38.635 79.2397C38.7894 78.8572 39.1825 78.4888 39.8878 78.4888C40.565 78.4888 40.9124 78.8432 40.9124 79.4537V79.4783C40.9124 79.8608 40.5194 79.8538 39.5509 79.9661C38.5298 80.0854 37.4841 80.352 37.4841 81.5767C37.4841 82.6364 38.2806 83.2189 39.3053 83.2189ZM39.5334 82.3768C38.9403 82.3768 38.5122 82.1101 38.5122 81.5907C38.5122 81.0293 39.0105 80.8293 39.6176 80.7486C39.9579 80.7029 40.765 80.6117 40.9159 80.4608V81.1556C40.9159 81.7943 40.4071 82.3768 39.5334 82.3768ZM44.4118 79.8994C44.4118 79.0397 44.9381 78.5484 45.668 78.5484C46.3803 78.5484 46.8119 79.0151 46.8119 79.7976V83.0996H47.8611V79.6713C47.8611 78.3379 47.1278 77.6396 46.0259 77.6396C45.2153 77.6396 44.6855 78.015 44.4363 78.587H44.3697V77.7097H43.3626V83.0996H44.4118V79.8994ZM51.5386 83.2084C52.8124 83.2084 53.637 82.4434 53.7528 81.3942H52.7317C52.5983 81.9767 52.1457 82.3206 51.5456 82.3206C50.6578 82.3206 50.0859 81.5802 50.0859 80.4047C50.0859 79.2502 50.6684 78.5238 51.5456 78.5238C52.2123 78.5238 52.6194 78.9449 52.7317 79.4502H53.7528C53.6405 78.3624 52.7527 77.6396 51.5281 77.6396C50.0087 77.6396 49.0261 78.7835 49.0261 80.4292C49.0261 82.0539 49.9736 83.2084 51.5386 83.2084ZM57.1978 83.2084C58.3733 83.2084 59.2049 82.6294 59.4436 81.7521L58.4505 81.5732C58.261 82.082 57.8048 82.3417 57.2083 82.3417C56.31 82.3417 55.7064 81.7592 55.6784 80.7205H59.5102V80.3485C59.5102 78.401 58.3452 77.6396 57.1241 77.6396C55.6222 77.6396 54.6327 78.7835 54.6327 80.4398C54.6327 82.1136 55.6082 83.2084 57.1978 83.2084ZM55.6819 79.9345C55.724 79.1695 56.2784 78.5063 57.1311 78.5063C57.9452 78.5063 58.4786 79.1098 58.4821 79.9345H55.6819ZM61.3656 79.2432C61.7481 79.2432 62.0674 78.9309 62.0674 78.5414C62.0674 78.1589 61.7481 77.8431 61.3656 77.8431C60.9796 77.8431 60.6638 78.1589 60.6638 78.5414C60.6638 78.9309 60.9796 79.2432 61.3656 79.2432ZM61.3656 83.1663C61.7481 83.1663 62.0674 82.854 62.0674 82.4645C62.0674 82.082 61.7481 81.7662 61.3656 81.7662C60.9796 81.7662 60.6638 82.082 60.6638 82.4645C60.6638 82.854 60.9796 83.1663 61.3656 83.1663ZM66.0739 83.0996H70.804V82.1697H67.5687V82.1171L68.9969 80.6222C70.3128 79.2923 70.6882 78.6572 70.6882 77.8536C70.6882 76.6991 69.7478 75.8149 68.3933 75.8149C67.0494 75.8149 66.0668 76.6851 66.0668 77.9975H67.102C67.0985 77.2255 67.5968 76.7202 68.3723 76.7202C69.1021 76.7202 69.6566 77.1694 69.6566 77.8852C69.6566 78.5203 69.2776 78.9765 68.5056 79.7941L66.0739 82.3136V83.0996ZM74.506 83.1979C75.9518 83.1979 76.9834 82.1767 76.9799 80.7766C76.9834 79.3871 76.0149 78.3765 74.7061 78.3765C74.1727 78.3765 73.6779 78.58 73.3972 78.8537H73.3551L73.5832 76.843H76.6325V75.9131H72.6814L72.2778 79.5344L73.2709 79.6818C73.5411 79.4397 74.0253 79.2748 74.4604 79.2748C75.3131 79.2818 75.9307 79.9204 75.9307 80.7977C75.9307 81.6609 75.3307 82.2855 74.506 82.2855C73.8113 82.2855 73.2603 81.8434 73.2042 81.2258H72.1515C72.1936 82.3697 73.1867 83.1979 74.506 83.1979ZM79.3897 82.1171H78.3791L78.344 82.5101C78.2633 83.461 78.0388 84.419 77.944 84.8541H78.6879C78.8564 84.3944 79.2283 83.3417 79.3371 82.4996L79.3897 82.1171ZM83.0891 83.2189C84.7489 83.2189 85.7209 81.8644 85.7209 79.5099C85.7209 77.1729 84.7349 75.8149 83.0891 75.8149C81.4399 75.8149 80.4574 77.1694 80.4538 79.5099C80.4538 81.8609 81.4258 83.2154 83.0891 83.2189ZM83.0891 82.282C82.1171 82.282 81.5311 81.3065 81.5311 79.5099C81.5346 77.7203 82.1206 76.7342 83.0891 76.7342C84.0541 76.7342 84.6436 77.7203 84.6436 79.5099C84.6436 81.3065 84.0576 82.282 83.0891 82.282ZM89.4676 83.2189C91.1274 83.2189 92.0994 81.8644 92.0994 79.5099C92.0994 77.1729 91.1134 75.8149 89.4676 75.8149C87.8184 75.8149 86.8359 77.1694 86.8324 79.5099C86.8324 81.8609 87.8044 83.2154 89.4676 83.2189ZM89.4676 82.282C88.4956 82.282 87.9096 81.3065 87.9096 79.5099C87.9132 77.7203 88.4992 76.7342 89.4676 76.7342C90.4326 76.7342 91.0221 77.7203 91.0221 79.5099C91.0221 81.3065 90.4361 82.282 89.4676 82.282ZM95.8462 83.2189C97.506 83.2189 98.478 81.8644 98.478 79.5099C98.478 77.1729 97.4919 75.8149 95.8462 75.8149C94.1969 75.8149 93.2144 77.1694 93.2109 79.5099C93.2109 81.8609 94.1829 83.2154 95.8462 83.2189ZM95.8462 82.282C94.8742 82.282 94.2882 81.3065 94.2882 79.5099C94.2917 77.7203 94.8777 76.7342 95.8462 76.7342C96.8112 76.7342 97.4007 77.7203 97.4007 79.5099C97.4007 81.3065 96.8147 82.282 95.8462 82.282ZM107.058 75.9131V80.5521C107.058 81.5276 106.384 82.2294 105.289 82.2294C104.198 82.2294 103.52 81.5276 103.52 80.5521V75.9131H102.436V80.6398C102.436 82.1487 103.566 83.2189 105.289 83.2189C107.012 83.2189 108.145 82.1487 108.145 80.6398V75.9131H107.058ZM113.641 77.801H114.687C114.655 76.65 113.638 75.8149 112.178 75.8149C110.736 75.8149 109.631 76.6395 109.631 77.8782C109.631 78.8783 110.346 79.4643 111.501 79.7766L112.35 80.0082C113.118 80.2117 113.712 80.4643 113.712 81.103C113.712 81.8048 113.041 82.268 112.118 82.268C111.283 82.268 110.588 81.896 110.525 81.1135H109.438C109.508 82.4153 110.515 83.2189 112.125 83.2189C113.813 83.2189 114.785 82.3311 114.785 81.1135C114.785 79.8187 113.631 79.3169 112.718 79.0923L112.017 78.9098C111.455 78.766 110.708 78.5028 110.711 77.815C110.711 77.2044 111.269 76.7518 112.153 76.7518C112.978 76.7518 113.564 77.1378 113.641 77.801ZM118.407 83.0996C120.597 83.0996 121.864 81.7416 121.864 79.4958C121.864 77.2606 120.597 75.9131 118.481 75.9131H116.081V83.0996H118.407ZM117.165 82.1522V76.8606H118.414C119.987 76.8606 120.797 77.801 120.797 79.4958C120.797 81.1977 119.987 82.1522 118.348 82.1522H117.165ZM129.181 78.2501C128.935 76.7132 127.732 75.8149 126.212 75.8149C124.353 75.8149 122.981 77.208 122.981 79.5064C122.981 81.8048 124.346 83.1979 126.212 83.1979C127.791 83.1979 128.946 82.2083 129.181 80.7872L128.086 80.7837C127.9 81.703 127.128 82.2083 126.219 82.2083C124.988 82.2083 124.058 81.2644 124.058 79.5064C124.058 77.7624 124.984 76.8044 126.223 76.8044C127.139 76.8044 127.907 77.3202 128.086 78.2501H129.181ZM136.447 78.2501C136.202 76.7132 134.998 75.8149 133.479 75.8149C131.619 75.8149 130.247 77.208 130.247 79.5064C130.247 81.8048 131.612 83.1979 133.479 83.1979C135.058 83.1979 136.212 82.2083 136.447 80.7872L135.353 80.7837C135.167 81.703 134.395 82.2083 133.486 82.2083C132.254 82.2083 131.324 81.2644 131.324 79.5064C131.324 77.7624 132.251 76.8044 133.489 76.8044C134.405 76.8044 135.174 77.3202 135.353 78.2501H136.447Z" fill="#515369"/>
<path d="M257.625 80.2994H258.513C258.502 79.6994 258.769 79.4572 259.13 79.4572C259.376 79.4572 259.53 79.566 259.857 79.8503C260.362 80.2924 260.713 80.4854 261.187 80.4854C261.973 80.4854 262.646 79.9415 262.618 78.7239H261.731C261.741 79.2818 261.488 79.566 261.113 79.566C260.864 79.566 260.706 79.4502 260.387 79.173C259.874 78.7239 259.523 78.5379 259.057 78.5379C258.264 78.5379 257.597 79.0818 257.625 80.2994ZM263.815 83.0996H268.545V82.1697H265.31V82.1171L266.738 80.6222C268.054 79.2923 268.429 78.6572 268.429 77.8536C268.429 76.6991 267.489 75.8149 266.134 75.8149C264.79 75.8149 263.808 76.6851 263.808 77.9975H264.843C264.84 77.2255 265.338 76.7202 266.113 76.7202C266.843 76.7202 267.398 77.1694 267.398 77.8852C267.398 78.5203 267.019 78.9765 266.247 79.7941L263.815 82.3136V83.0996ZM272.247 83.1979C273.693 83.1979 274.724 82.1767 274.721 80.7766C274.724 79.3871 273.756 78.3765 272.447 78.3765C271.914 78.3765 271.419 78.58 271.138 78.8537H271.096L271.324 76.843H274.374V75.9131H270.422L270.019 79.5344L271.012 79.6818C271.282 79.4397 271.766 79.2748 272.202 79.2748C273.054 79.2818 273.672 79.9204 273.672 80.7977C273.672 81.6609 273.072 82.2855 272.247 82.2855C271.552 82.2855 271.001 81.8434 270.945 81.2258H269.893C269.935 82.3697 270.928 83.1979 272.247 83.1979ZM277.131 82.1171H276.12L276.085 82.5101C276.004 83.461 275.78 84.419 275.685 84.8541H276.429C276.597 84.3944 276.969 83.3417 277.078 82.4996L277.131 82.1171ZM280.83 83.2189C282.49 83.2189 283.462 81.8644 283.462 79.5099C283.462 77.1729 282.476 75.8149 280.83 75.8149C279.181 75.8149 278.198 77.1694 278.195 79.5099C278.195 81.8609 279.167 83.2154 280.83 83.2189ZM280.83 82.282C279.858 82.282 279.272 81.3065 279.272 79.5099C279.276 77.7203 279.862 76.7342 280.83 76.7342C281.795 76.7342 282.385 77.7203 282.385 79.5099C282.385 81.3065 281.799 82.282 280.83 82.282ZM287.209 83.2189C288.868 83.2189 289.84 81.8644 289.84 79.5099C289.84 77.1729 288.854 75.8149 287.209 75.8149C285.559 75.8149 284.577 77.1694 284.573 79.5099C284.573 81.8609 285.545 83.2154 287.209 83.2189ZM287.209 82.282C286.237 82.282 285.651 81.3065 285.651 79.5099C285.654 77.7203 286.24 76.7342 287.209 76.7342C288.174 76.7342 288.763 77.7203 288.763 79.5099C288.763 81.3065 288.177 82.282 287.209 82.282ZM293.587 83.2189C295.247 83.2189 296.219 81.8644 296.219 79.5099C296.219 77.1729 295.233 75.8149 293.587 75.8149C291.938 75.8149 290.955 77.1694 290.952 79.5099C290.952 81.8609 291.924 83.2154 293.587 83.2189ZM293.587 82.282C292.615 82.282 292.029 81.3065 292.029 79.5099C292.033 77.7203 292.619 76.7342 293.587 76.7342C294.552 76.7342 295.142 77.7203 295.142 79.5099C295.142 81.3065 294.556 82.282 293.587 82.282ZM300.215 75.5763H299.278L296.962 84.1804H297.899L300.215 75.5763ZM303.594 83.2189C305.254 83.2189 306.226 81.8644 306.226 79.5099C306.226 77.1729 305.24 75.8149 303.594 75.8149C301.945 75.8149 300.962 77.1694 300.959 79.5099C300.959 81.8609 301.931 83.2154 303.594 83.2189ZM303.594 82.282C302.622 82.282 302.036 81.3065 302.036 79.5099C302.04 77.7203 302.626 76.7342 303.594 76.7342C304.559 76.7342 305.149 77.7203 305.149 79.5099C305.149 81.3065 304.563 82.282 303.594 82.282ZM309.973 83.2189C311.632 83.2189 312.604 81.8644 312.604 79.5099C312.604 77.1729 311.618 75.8149 309.973 75.8149C308.323 75.8149 307.341 77.1694 307.337 79.5099C307.337 81.8609 308.309 83.2154 309.973 83.2189ZM309.973 82.282C309.001 82.282 308.415 81.3065 308.415 79.5099C308.418 77.7203 309.004 76.7342 309.973 76.7342C310.938 76.7342 311.527 77.7203 311.527 79.5099C311.527 81.3065 310.941 82.282 309.973 82.282Z" fill="#515362"/>
<path d="M217.213 145.641C217.213 146.853 216.64 148.203 215.494 149.692C214.347 151.181 212.746 152.801 210.691 154.554H217.648V155.977H208.873V154.554C209.123 154.316 209.466 154.007 209.901 153.625C210.335 153.243 210.803 152.821 211.304 152.36C211.804 151.886 212.312 151.378 212.826 150.838C213.353 150.298 213.827 149.745 214.248 149.178C214.67 148.612 215.013 148.045 215.276 147.479C215.54 146.912 215.671 146.365 215.671 145.838C215.671 145.048 215.461 144.428 215.039 143.981C214.631 143.519 214.011 143.289 213.181 143.289C212.47 143.289 211.87 143.368 211.383 143.526C210.895 143.684 210.454 143.915 210.059 144.218L209.387 143.131C209.98 142.709 210.606 142.399 211.264 142.202C211.936 142.004 212.667 141.905 213.458 141.905C214.696 141.905 215.632 142.241 216.264 142.913C216.897 143.585 217.213 144.494 217.213 145.641ZM224.241 154.83C224.741 154.83 225.203 154.771 225.624 154.652C226.046 154.521 226.401 154.33 226.691 154.079C226.994 153.816 227.225 153.493 227.383 153.111C227.554 152.729 227.64 152.281 227.64 151.767C227.64 150.818 227.297 150.1 226.612 149.613C225.94 149.112 225.018 148.862 223.845 148.862L221.988 148.961V142.143H228.766V143.566H223.47V147.577L224.458 147.538C225.921 147.538 227.073 147.894 227.917 148.605C228.76 149.316 229.181 150.331 229.181 151.649C229.181 152.386 229.05 153.038 228.786 153.605C228.536 154.172 228.187 154.652 227.739 155.048C227.291 155.43 226.757 155.72 226.138 155.917C225.532 156.115 224.867 156.214 224.142 156.214C223.747 156.214 223.371 156.181 223.015 156.115C222.66 156.062 222.337 155.996 222.047 155.917C221.757 155.825 221.5 155.733 221.276 155.641C221.065 155.535 220.914 155.443 220.822 155.364L221.454 154.079C221.678 154.211 222.021 154.369 222.482 154.554C222.943 154.738 223.529 154.83 224.241 154.83ZM235.557 154.89C235.557 154.494 235.682 154.178 235.933 153.941C236.196 153.691 236.532 153.565 236.941 153.565C237.441 153.565 237.83 153.743 238.107 154.099C238.383 154.442 238.522 154.929 238.522 155.562C238.522 156.075 238.436 156.523 238.265 156.905C238.093 157.301 237.876 157.63 237.612 157.894C237.362 158.17 237.085 158.388 236.782 158.546C236.493 158.717 236.222 158.842 235.972 158.921L235.478 158.15C235.952 157.966 236.361 157.703 236.703 157.36C237.046 157.017 237.217 156.602 237.217 156.115C237.033 156.154 236.888 156.174 236.782 156.174C236.4 156.174 236.097 156.069 235.873 155.858C235.663 155.634 235.557 155.311 235.557 154.89ZM243.968 149.06C243.968 147.94 244.067 146.938 244.265 146.056C244.462 145.16 244.759 144.409 245.154 143.803C245.549 143.183 246.05 142.716 246.656 142.399C247.262 142.07 247.98 141.905 248.81 141.905C249.693 141.905 250.437 142.064 251.043 142.38C251.663 142.696 252.163 143.157 252.545 143.763C252.928 144.369 253.204 145.12 253.375 146.016C253.547 146.899 253.632 147.913 253.632 149.06C253.632 150.179 253.534 151.187 253.336 152.083C253.138 152.966 252.842 153.717 252.447 154.336C252.051 154.942 251.551 155.41 250.945 155.739C250.339 156.056 249.621 156.214 248.79 156.214C247.921 156.214 247.177 156.042 246.557 155.7C245.951 155.344 245.451 154.85 245.055 154.218C244.673 153.585 244.397 152.834 244.225 151.965C244.054 151.082 243.968 150.114 243.968 149.06ZM252.012 149.06C252.012 148.361 251.972 147.696 251.893 147.064L246.024 152.419C246.248 153.17 246.584 153.77 247.032 154.218C247.48 154.666 248.066 154.89 248.79 154.89C249.95 154.89 250.773 154.409 251.261 153.447C251.761 152.485 252.012 151.023 252.012 149.06ZM245.609 149.06C245.609 149.389 245.615 149.705 245.628 150.008C245.655 150.311 245.681 150.608 245.707 150.898L251.597 145.562C251.373 144.85 251.037 144.284 250.589 143.862C250.154 143.44 249.561 143.23 248.81 143.23C247.638 143.23 246.808 143.717 246.32 144.692C245.846 145.654 245.609 147.11 245.609 149.06ZM255.818 149.06C255.818 147.94 255.917 146.938 256.115 146.056C256.312 145.16 256.609 144.409 257.004 143.803C257.399 143.183 257.9 142.716 258.506 142.399C259.112 142.07 259.83 141.905 260.66 141.905C261.543 141.905 262.287 142.064 262.893 142.38C263.513 142.696 264.013 143.157 264.395 143.763C264.777 144.369 265.054 145.12 265.225 146.016C265.397 146.899 265.482 147.913 265.482 149.06C265.482 150.179 265.384 151.187 265.186 152.083C264.988 152.966 264.692 153.717 264.297 154.336C263.901 154.942 263.401 155.41 262.795 155.739C262.189 156.056 261.47 156.214 260.64 156.214C259.771 156.214 259.026 156.042 258.407 155.7C257.801 155.344 257.301 154.85 256.905 154.218C256.523 153.585 256.247 152.834 256.075 151.965C255.904 151.082 255.818 150.114 255.818 149.06ZM263.862 149.06C263.862 148.361 263.822 147.696 263.743 147.064L257.874 152.419C258.098 153.17 258.434 153.77 258.882 154.218C259.33 154.666 259.916 154.89 260.64 154.89C261.8 154.89 262.623 154.409 263.111 153.447C263.611 152.485 263.862 151.023 263.862 149.06ZM257.459 149.06C257.459 149.389 257.465 149.705 257.478 150.008C257.505 150.311 257.531 150.608 257.557 150.898L263.447 145.562C263.223 144.85 262.887 144.284 262.439 143.862C262.004 143.44 261.411 143.23 260.66 143.23C259.488 143.23 258.658 143.717 258.17 144.692C257.696 145.654 257.459 147.11 257.459 149.06ZM269.091 154.554H272.194V144.158L269.032 146.372L268.261 145.245L272.609 142.143H273.716V154.554H276.759V155.977H269.091V154.554ZM283.036 154.89C283.036 154.468 283.155 154.145 283.392 153.921C283.629 153.684 283.945 153.565 284.34 153.565C284.762 153.565 285.091 153.684 285.329 153.921C285.566 154.145 285.684 154.468 285.684 154.89C285.684 155.272 285.566 155.588 285.329 155.838C285.091 156.089 284.762 156.214 284.34 156.214C283.945 156.214 283.629 156.089 283.392 155.838C283.155 155.588 283.036 155.272 283.036 154.89ZM300.163 145.641C300.163 146.853 299.59 148.203 298.443 149.692C297.297 151.181 295.696 152.801 293.641 154.554H300.597V155.977H291.823V154.554C292.073 154.316 292.416 154.007 292.85 153.625C293.285 153.243 293.753 152.821 294.254 152.36C294.754 151.886 295.262 151.378 295.775 150.838C296.302 150.298 296.777 149.745 297.198 149.178C297.62 148.612 297.962 148.045 298.226 147.479C298.489 146.912 298.621 146.365 298.621 145.838C298.621 145.048 298.41 144.428 297.989 143.981C297.58 143.519 296.961 143.289 296.131 143.289C295.42 143.289 294.82 143.368 294.333 143.526C293.845 143.684 293.404 143.915 293.009 144.218L292.337 143.131C292.93 142.709 293.555 142.399 294.214 142.202C294.886 142.004 295.617 141.905 296.408 141.905C297.646 141.905 298.582 142.241 299.214 142.913C299.847 143.585 300.163 144.494 300.163 145.641ZM303.218 149.06C303.218 147.94 303.317 146.938 303.515 146.056C303.712 145.16 304.009 144.409 304.404 143.803C304.799 143.183 305.3 142.716 305.906 142.399C306.512 142.07 307.23 141.905 308.06 141.905C308.943 141.905 309.687 142.064 310.293 142.38C310.913 142.696 311.413 143.157 311.795 143.763C312.177 144.369 312.454 145.12 312.625 146.016C312.797 146.899 312.882 147.913 312.882 149.06C312.882 150.179 312.783 151.187 312.586 152.083C312.388 152.966 312.092 153.717 311.696 154.336C311.301 154.942 310.801 155.41 310.195 155.739C309.588 156.056 308.87 156.214 308.04 156.214C307.171 156.214 306.426 156.042 305.807 155.7C305.201 155.344 304.7 154.85 304.305 154.218C303.923 153.585 303.646 152.834 303.475 151.965C303.304 151.082 303.218 150.114 303.218 149.06ZM311.262 149.06C311.262 148.361 311.222 147.696 311.143 147.064L305.274 152.419C305.498 153.17 305.834 153.77 306.281 154.218C306.729 154.666 307.316 154.89 308.04 154.89C309.2 154.89 310.023 154.409 310.511 153.447C311.011 152.485 311.262 151.023 311.262 149.06ZM304.859 149.06C304.859 149.389 304.865 149.705 304.878 150.008C304.905 150.311 304.931 150.608 304.957 150.898L310.847 145.562C310.623 144.85 310.287 144.284 309.839 143.862C309.404 143.44 308.811 143.23 308.06 143.23C306.888 143.23 306.057 143.717 305.57 144.692C305.096 145.654 304.859 147.11 304.859 149.06Z" fill="#515369"/>
<path d="M58.2796 151.693V155.559C58.2796 156.372 57.7182 156.956 56.8058 156.956C55.8964 156.956 55.332 156.372 55.332 155.559V151.693H54.4284V155.632C54.4284 156.889 55.37 157.781 56.8058 157.781C58.2416 157.781 59.1861 156.889 59.1861 155.632V151.693H58.2796ZM63.7661 153.266H64.6375C64.6112 152.307 63.7632 151.611 62.5467 151.611C61.3449 151.611 60.4238 152.298 60.4238 153.33C60.4238 154.164 61.0203 154.652 61.9824 154.912L62.69 155.105C63.3304 155.275 63.8246 155.486 63.8246 156.018C63.8246 156.603 63.2661 156.989 62.497 156.989C61.8011 156.989 61.2221 156.679 61.1694 156.027H60.2629C60.3214 157.111 61.1607 157.781 62.5029 157.781C63.9094 157.781 64.7194 157.041 64.7194 156.027C64.7194 154.948 63.7573 154.529 62.997 154.342L62.4122 154.19C61.9443 154.07 61.3215 153.851 61.3244 153.278C61.3244 152.769 61.7894 152.392 62.5263 152.392C63.2134 152.392 63.7018 152.713 63.7661 153.266ZM67.7379 157.682C69.5626 157.682 70.6182 156.55 70.6182 154.679C70.6182 152.816 69.5626 151.693 67.7993 151.693H65.7992V157.682H67.7379ZM66.7027 156.892V152.482H67.7437C69.0538 152.482 69.7293 153.266 69.7293 154.679C69.7293 156.097 69.0538 156.892 67.6882 156.892H66.7027ZM71.1972 152.471H73.0628V157.682H73.9635V152.471H75.832V151.693H71.1972V152.471Z" fill="#999999"/>
<g clip-path="url(#clip1_2429:10316)">
<path fill-rule="evenodd" clip-rule="evenodd" d="M27.9027 134.862L23.5423 145.099C23.5257 145.137 23.5205 145.18 23.5273 145.222C23.5342 145.263 23.5528 145.301 23.5804 145.33L35.3568 157.943C35.3902 157.978 35.4348 157.998 35.4811 157.998C35.5275 157.998 35.572 157.978 35.6055 157.943L47.3819 145.331C47.4095 145.302 47.4281 145.264 47.4349 145.222C47.4418 145.181 47.4365 145.138 47.4199 145.1L43.0595 134.863C43.0455 134.829 43.0228 134.8 42.9943 134.779C42.9659 134.759 42.9327 134.748 42.8989 134.748H28.0648C28.0308 134.748 27.9974 134.758 27.9687 134.778C27.9399 134.799 27.917 134.828 27.9027 134.862V134.862V134.862Z" fill="#50AF95"/>
<path fill-rule="evenodd" clip-rule="evenodd" d="M36.9933 146.15C36.9088 146.157 36.472 146.186 35.4976 146.186C34.7226 146.186 34.1724 146.16 33.9793 146.15C30.9843 146.003 28.7488 145.42 28.7488 144.723C28.7488 144.025 30.9843 143.443 33.9793 143.293V145.57C34.1752 145.586 34.736 145.623 35.511 145.623C36.441 145.623 36.9067 145.579 36.9905 145.571V143.295C39.9792 143.444 42.2097 144.026 42.2097 144.723C42.2097 145.419 39.9799 146.001 36.9905 146.149L36.9933 146.15ZM36.9933 143.059V141.022H41.1642V137.916H29.8084V141.022H33.9786V143.059C30.5891 143.233 28.04 143.983 28.04 144.882C28.04 145.782 30.5891 146.531 33.9786 146.706V153.234H36.9926V146.704C40.3744 146.53 42.9192 145.78 42.9192 144.882C42.9192 143.983 40.3765 143.234 36.9926 143.059L36.9933 143.059Z" fill="white"/>
</g>
<path d="M60.287 135.004V140.474C60.287 141.702 59.4436 142.586 58.0435 142.586C56.6434 142.586 55.8001 141.702 55.8001 140.474V135.004H54.7848V140.556C54.7848 142.275 56.0703 143.536 58.0435 143.536C60.0168 143.536 61.3022 142.275 61.3022 140.556V135.004H60.287ZM67.9148 137.1H68.8974C68.8523 135.835 67.6856 134.89 66.0644 134.89C64.4596 134.89 63.1987 135.823 63.1987 137.232C63.1987 138.361 64.0175 139.033 65.3275 139.409L66.3592 139.704C67.2435 139.95 68.0295 140.261 68.0295 141.096C68.0295 142.013 67.1452 142.619 65.9825 142.619C64.9836 142.619 64.0994 142.177 64.0175 141.227H62.9695C63.0677 142.603 64.1812 143.536 65.9825 143.536C67.9148 143.536 69.012 142.472 69.012 141.112C69.012 139.54 67.5218 139.033 66.6539 138.804L65.8024 138.574C65.1801 138.411 64.1812 138.083 64.1812 137.182C64.1812 136.38 64.9181 135.79 66.0317 135.79C67.0469 135.79 67.8166 136.274 67.9148 137.1ZM73.2686 143.389C75.8232 143.389 77.2642 141.8 77.2642 139.18C77.2642 136.576 75.8232 135.004 73.3832 135.004H70.6813V143.389H73.2686ZM71.6966 142.488V135.905H73.3177C75.2828 135.905 76.2817 137.15 76.2817 139.18C76.2817 141.227 75.2828 142.488 73.2031 142.488H71.6966ZM78.1597 135.905H80.7962V143.389H81.8115V135.905H84.4479V135.004H78.1597V135.905Z" fill="white"/>
<path d="M23.269 193.443H26.0236C27.6939 193.443 28.4483 192.612 28.4483 191.51C28.4483 190.398 27.6693 189.769 26.957 189.731V189.661C27.6167 189.492 28.1676 189.043 28.1676 188.145C28.1676 187.081 27.4307 186.257 25.9008 186.257H23.269V193.443ZM24.3533 192.513V190.212H25.9569C26.8272 190.212 27.3711 190.773 27.3711 191.457C27.3711 192.061 26.9605 192.513 25.9183 192.513H24.3533ZM24.3533 189.366V187.18H25.8341C26.6938 187.18 27.1044 187.632 27.1044 188.229C27.1044 188.924 26.5359 189.366 25.806 189.366H24.3533ZM31.2187 193.563C32.11 193.563 32.6118 193.11 32.8118 192.706H32.8539V193.443H33.8786V189.864C33.8786 188.296 32.6434 187.983 31.7872 187.983C30.8117 187.983 29.9134 188.376 29.5625 189.359L30.5485 189.583C30.7029 189.201 31.0959 188.833 31.8012 188.833C32.4785 188.833 32.8259 189.187 32.8259 189.797V189.822C32.8259 190.205 32.4328 190.198 31.4643 190.31C30.4432 190.429 29.3975 190.696 29.3975 191.92C29.3975 192.98 30.1941 193.563 31.2187 193.563ZM31.4468 192.721C30.8538 192.721 30.4257 192.454 30.4257 191.934C30.4257 191.373 30.924 191.173 31.531 191.092C31.8714 191.047 32.6785 190.955 32.8294 190.805V191.499C32.8294 192.138 32.3206 192.721 31.4468 192.721ZM36.3252 186.257H35.276V193.443H36.3252V186.257ZM39.3053 193.563C40.1966 193.563 40.6983 193.11 40.8984 192.706H40.9405V193.443H41.9651V189.864C41.9651 188.296 40.7299 187.983 39.8737 187.983C38.8982 187.983 37.9999 188.376 37.649 189.359L38.635 189.583C38.7894 189.201 39.1825 188.833 39.8878 188.833C40.565 188.833 40.9124 189.187 40.9124 189.797V189.822C40.9124 190.205 40.5194 190.198 39.5509 190.31C38.5298 190.429 37.4841 190.696 37.4841 191.92C37.4841 192.98 38.2806 193.563 39.3053 193.563ZM39.5334 192.721C38.9403 192.721 38.5122 192.454 38.5122 191.934C38.5122 191.373 39.0105 191.173 39.6176 191.092C39.9579 191.047 40.765 190.955 40.9159 190.805V191.499C40.9159 192.138 40.4071 192.721 39.5334 192.721ZM44.4118 190.243C44.4118 189.383 44.9381 188.892 45.668 188.892C46.3803 188.892 46.8119 189.359 46.8119 190.141V193.443H47.8611V190.015C47.8611 188.682 47.1278 187.983 46.0259 187.983C45.2153 187.983 44.6855 188.359 44.4363 188.931H44.3697V188.053H43.3626V193.443H44.4118V190.243ZM51.5386 193.552C52.8124 193.552 53.637 192.787 53.7528 191.738H52.7317C52.5983 192.32 52.1457 192.664 51.5456 192.664C50.6578 192.664 50.0859 191.924 50.0859 190.748C50.0859 189.594 50.6684 188.868 51.5456 188.868C52.2123 188.868 52.6194 189.289 52.7317 189.794H53.7528C53.6405 188.706 52.7527 187.983 51.5281 187.983C50.0087 187.983 49.0261 189.127 49.0261 190.773C49.0261 192.398 49.9736 193.552 51.5386 193.552ZM57.1978 193.552C58.3733 193.552 59.2049 192.973 59.4436 192.096L58.4505 191.917C58.261 192.426 57.8048 192.685 57.2083 192.685C56.31 192.685 55.7064 192.103 55.6784 191.064H59.5102V190.692C59.5102 188.745 58.3452 187.983 57.1241 187.983C55.6222 187.983 54.6327 189.127 54.6327 190.784C54.6327 192.457 55.6082 193.552 57.1978 193.552ZM55.6819 190.278C55.724 189.513 56.2784 188.85 57.1311 188.85C57.9452 188.85 58.4786 189.454 58.4821 190.278H55.6819ZM61.3656 189.587C61.7481 189.587 62.0674 189.275 62.0674 188.885C62.0674 188.503 61.7481 188.187 61.3656 188.187C60.9796 188.187 60.6638 188.503 60.6638 188.885C60.6638 189.275 60.9796 189.587 61.3656 189.587ZM61.3656 193.51C61.7481 193.51 62.0674 193.198 62.0674 192.808C62.0674 192.426 61.7481 192.11 61.3656 192.11C60.9796 192.11 60.6638 192.426 60.6638 192.808C60.6638 193.198 60.9796 193.51 61.3656 193.51ZM68.5758 193.563C70.2356 193.563 71.2076 192.208 71.2076 189.854C71.2076 187.517 70.2215 186.159 68.5758 186.159C66.9266 186.159 65.944 187.513 65.9405 189.854C65.9405 192.205 66.9125 193.559 68.5758 193.563ZM68.5758 192.626C67.6038 192.626 67.0178 191.65 67.0178 189.854C67.0213 188.064 67.6073 187.078 68.5758 187.078C69.5408 187.078 70.1303 188.064 70.1303 189.854C70.1303 191.65 69.5443 192.626 68.5758 192.626ZM79.7871 186.257V190.896C79.7871 191.871 79.1134 192.573 78.0186 192.573C76.9273 192.573 76.25 191.871 76.25 190.896V186.257H75.1657V190.984C75.1657 192.492 76.2956 193.563 78.0186 193.563C79.7415 193.563 80.8749 192.492 80.8749 190.984V186.257H79.7871ZM86.3709 188.145H87.4166C87.385 186.994 86.3674 186.159 84.9077 186.159C83.4655 186.159 82.3601 186.983 82.3601 188.222C82.3601 189.222 83.076 189.808 84.2304 190.12L85.0796 190.352C85.8481 190.555 86.4411 190.808 86.4411 191.447C86.4411 192.149 85.7709 192.612 84.848 192.612C84.0129 192.612 83.3181 192.24 83.2549 191.457H82.1671C82.2373 192.759 83.2444 193.563 84.855 193.563C86.5429 193.563 87.5149 192.675 87.5149 191.457C87.5149 190.162 86.3604 189.661 85.4481 189.436L84.7463 189.254C84.1848 189.11 83.4374 188.847 83.4409 188.159C83.4409 187.548 83.9988 187.096 84.8831 187.096C85.7077 187.096 86.2937 187.482 86.3709 188.145ZM88.4562 187.19H90.6949V193.443H91.7757V187.19H94.018V186.257H88.4562V187.19Z" fill="#515369"/>
<path d="M217.108 190.643H217.996C217.985 190.043 218.252 189.801 218.614 189.801C218.859 189.801 219.014 189.91 219.34 190.194C219.845 190.636 220.196 190.829 220.67 190.829C221.456 190.829 222.13 190.285 222.101 189.068H221.214C221.224 189.626 220.972 189.91 220.596 189.91C220.347 189.91 220.189 189.794 219.87 189.517C219.357 189.068 219.007 188.882 218.54 188.882C217.747 188.882 217.08 189.426 217.108 190.643ZM225.753 194.342H226.412L226.416 193.552C227.9 193.443 228.749 192.594 228.749 191.457C228.749 190.162 227.595 189.661 226.683 189.436L226.426 189.369L226.433 187.117C227.09 187.204 227.539 187.569 227.605 188.145H228.651C228.623 187.074 227.739 186.274 226.437 186.169L226.44 185.359H225.781L225.777 186.176C224.517 186.302 223.595 187.089 223.595 188.222C223.595 189.222 224.31 189.808 225.465 190.12L225.767 190.201L225.76 192.591C225.075 192.506 224.546 192.134 224.489 191.457H223.402C223.468 192.668 224.342 193.447 225.756 193.552L225.753 194.342ZM226.419 192.591L226.426 190.383C227.139 190.58 227.676 190.84 227.676 191.447C227.676 192.061 227.163 192.492 226.419 192.591ZM225.77 189.194C225.247 189.04 224.672 188.762 224.675 188.159C224.675 187.632 225.093 187.222 225.774 187.12L225.77 189.194ZM229.947 193.443H234.677V192.513H231.442V192.461L232.87 190.966C234.186 189.636 234.561 189.001 234.561 188.197C234.561 187.043 233.621 186.159 232.266 186.159C230.922 186.159 229.94 187.029 229.94 188.341H230.975C230.971 187.569 231.47 187.064 232.245 187.064C232.975 187.064 233.53 187.513 233.53 188.229C233.53 188.864 233.151 189.32 232.379 190.138L229.947 192.657V193.443ZM238.379 193.542C239.825 193.542 240.856 192.52 240.853 191.12C240.856 189.731 239.888 188.72 238.579 188.72C238.046 188.72 237.551 188.924 237.27 189.197H237.228L237.456 187.187H240.505V186.257H236.554L236.151 189.878L237.144 190.026C237.414 189.783 237.898 189.619 238.333 189.619C239.186 189.626 239.804 190.264 239.804 191.141C239.804 192.005 239.204 192.629 238.379 192.629C237.684 192.629 237.133 192.187 237.077 191.57H236.024C236.067 192.713 237.06 193.542 238.379 193.542ZM243.263 192.461H242.252L242.217 192.854C242.136 193.805 241.912 194.763 241.817 195.198H242.561C242.729 194.738 243.101 193.685 243.21 192.843L243.263 192.461ZM246.962 193.563C248.622 193.563 249.594 192.208 249.594 189.854C249.594 187.517 248.608 186.159 246.962 186.159C245.313 186.159 244.33 187.513 244.327 189.854C244.327 192.205 245.299 193.559 246.962 193.563ZM246.962 192.626C245.99 192.626 245.404 191.65 245.404 189.854C245.408 188.064 245.994 187.078 246.962 187.078C247.927 187.078 248.517 188.064 248.517 189.854C248.517 191.65 247.931 192.626 246.962 192.626ZM253.341 193.563C255 193.563 255.972 192.208 255.972 189.854C255.972 187.517 254.986 186.159 253.341 186.159C251.691 186.159 250.709 187.513 250.705 189.854C250.705 192.205 251.677 193.559 253.341 193.563ZM253.341 192.626C252.369 192.626 251.783 191.65 251.783 189.854C251.786 188.064 252.372 187.078 253.341 187.078C254.306 187.078 254.895 188.064 254.895 189.854C254.895 191.65 254.309 192.626 253.341 192.626ZM259.944 186.257H258.887L257.094 187.429V188.468L258.814 187.345H258.856V193.443H259.944V186.257ZM262.188 193.51C262.57 193.51 262.89 193.198 262.89 192.808C262.89 192.426 262.57 192.11 262.188 192.11C261.802 192.11 261.486 192.426 261.486 192.808C261.486 193.198 261.802 193.51 262.188 193.51ZM264.281 193.443H269.011V192.513H265.776V192.461L267.204 190.966C268.52 189.636 268.895 189.001 268.895 188.197C268.895 187.043 267.955 186.159 266.6 186.159C265.256 186.159 264.274 187.029 264.274 188.341H265.309C265.305 187.569 265.804 187.064 266.579 187.064C267.309 187.064 267.864 187.513 267.864 188.229C267.864 188.864 267.485 189.32 266.713 190.138L264.281 192.657V193.443ZM272.843 193.563C274.503 193.563 275.475 192.208 275.475 189.854C275.475 187.517 274.489 186.159 272.843 186.159C271.194 186.159 270.211 187.513 270.208 189.854C270.208 192.205 271.18 193.559 272.843 193.563ZM272.843 192.626C271.871 192.626 271.285 191.65 271.285 189.854C271.288 188.064 271.874 187.078 272.843 187.078C273.808 187.078 274.397 188.064 274.397 189.854C274.397 191.65 273.811 192.626 272.843 192.626ZM279.654 189.85C279.654 191.612 280.124 193.078 281.015 194.328H281.977C281.286 193.401 280.742 191.52 280.742 189.85C280.742 188.183 281.286 186.302 281.977 185.376H281.015C280.124 186.625 279.654 188.092 279.654 189.85ZM285.571 193.563C287.231 193.563 288.203 192.208 288.203 189.854C288.203 187.517 287.217 186.159 285.571 186.159C283.922 186.159 282.939 187.513 282.936 189.854C282.936 192.205 283.908 193.559 285.571 193.563ZM285.571 192.626C284.599 192.626 284.013 191.65 284.013 189.854C284.016 188.064 284.602 187.078 285.571 187.078C286.536 187.078 287.125 188.064 287.125 189.854C287.125 191.65 286.539 192.626 285.571 192.626ZM289.883 193.51C290.265 193.51 290.584 193.198 290.584 192.808C290.584 192.426 290.265 192.11 289.883 192.11C289.497 192.11 289.181 192.426 289.181 192.808C289.181 193.198 289.497 193.51 289.883 193.51ZM294.208 193.563C295.867 193.563 296.839 192.208 296.839 189.854C296.839 187.517 295.853 186.159 294.208 186.159C292.558 186.159 291.576 187.513 291.572 189.854C291.572 192.205 292.544 193.559 294.208 193.563ZM294.208 192.626C293.236 192.626 292.65 191.65 292.65 189.854C292.653 188.064 293.239 187.078 294.208 187.078C295.173 187.078 295.762 188.064 295.762 189.854C295.762 191.65 295.176 192.626 294.208 192.626ZM300.811 186.257H299.754L297.961 187.429V188.468L299.681 187.345H299.723V193.443H300.811V186.257ZM306.506 192.096C306.509 192.906 307.018 193.591 307.969 193.591C308.91 193.591 309.425 192.906 309.425 192.096V191.717C309.425 190.903 308.924 190.222 307.969 190.222C307.032 190.222 306.509 190.906 306.506 191.717V192.096ZM302.892 187.983C302.892 188.794 303.404 189.478 304.355 189.478C305.292 189.478 305.811 188.797 305.808 187.983V187.604C305.811 186.79 305.306 186.109 304.355 186.109C303.421 186.109 302.892 186.79 302.892 187.604V187.983ZM303.186 193.443H304.025L308.966 186.257H308.127L303.186 193.443ZM307.323 191.717C307.327 191.313 307.502 190.924 307.969 190.924C308.453 190.924 308.604 191.313 308.604 191.717V192.096C308.604 192.499 308.439 192.889 307.969 192.889C307.492 192.889 307.327 192.496 307.323 192.096V191.717ZM303.713 187.604C303.713 187.204 303.888 186.811 304.355 186.811C304.839 186.811 304.99 187.201 304.99 187.604V187.983C304.99 188.387 304.825 188.776 304.355 188.776C303.878 188.776 303.713 188.387 303.713 187.983V187.604ZM312.969 189.854C312.969 188.092 312.499 186.625 311.608 185.376H310.646C311.338 186.302 311.882 188.183 311.882 189.854C311.882 191.52 311.338 193.401 310.646 194.328H311.608C312.499 193.078 312.969 191.612 312.969 189.854Z" fill="#515369"/>
<defs>
<filter id="filter0_i_2429:10316" x="0.245117" y="0.636719" width="329.381" height="105.401" filterUnits="userSpaceOnUse" color-interpolation-filters="sRGB">
<feFlood flood-opacity="0" result="BackgroundImageFix"/>
<feBlend mode="normal" in="SourceGraphic" in2="BackgroundImageFix" result="shape"/>
<feColorMatrix in="SourceAlpha" type="matrix" values="0 0 0 0 0 0 0 0 0 0 0 0 0 0 0 0 0 0 127 0" result="hardAlpha"/>
<feOffset dy="3.2938"/>
<feGaussianBlur stdDeviation="1.6469"/>
<feComposite in2="hardAlpha" operator="arithmetic" k2="-1" k3="1"/>
<feColorMatrix type="matrix" values="0 0 0 0 0 0 0 0 0 0 0 0 0 0 0 0 0 0 0.25 0"/>
<feBlend mode="normal" in2="shape" result="effect1_innerShadow_2429:10316"/>
</filter>
<filter id="filter1_i_2429:10316" x="0.246094" y="110.979" width="329.381" height="105.401" filterUnits="userSpaceOnUse" color-interpolation-filters="sRGB">
<feFlood flood-opacity="0" result="BackgroundImageFix"/>
<feBlend mode="normal" in="SourceGraphic" in2="BackgroundImageFix" result="shape"/>
<feColorMatrix in="SourceAlpha" type="matrix" values="0 0 0 0 0 0 0 0 0 0 0 0 0 0 0 0 0 0 127 0" result="hardAlpha"/>
<feOffset dy="3.2938"/>
<feGaussianBlur stdDeviation="1.6469"/>
<feComposite in2="hardAlpha" operator="arithmetic" k2="-1" k3="1"/>
<feColorMatrix type="matrix" values="0 0 0 0 0 0 0 0 0 0 0 0 0 0 0 0 0 0 0.25 0"/>
<feBlend mode="normal" in2="shape" result="effect1_innerShadow_2429:10316"/>
</filter>
<clipPath id="clip0_2429:10316">
<rect width="24.7035" height="24.7035" fill="white" transform="translate(22.4785 22.0449)"/>
</clipPath>
<clipPath id="clip1_2429:10316">
<rect width="24.7035" height="24.7035" fill="white" transform="translate(23.3018 134.035)"/>
</clipPath>
</defs>
</svg>
