<svg width="1512" height="1098" viewBox="0 0 1512 1098" fill="none" xmlns="http://www.w3.org/2000/svg">
<g filter="url(#filter0_d_186_13583)">
<mask id="mask0_186_13583" style="mask-type:alpha" maskUnits="userSpaceOnUse" x="0" y="0" width="1512" height="1299">
<rect width="1512" height="1299" fill="#C4C4C4"/>
</mask>
<g mask="url(#mask0_186_13583)">
<g opacity="0.6" filter="url(#filter1_f_186_13583)">
<ellipse cx="602.018" cy="470.652" rx="454.259" ry="349.466" fill="#5E19F0" fill-opacity="0.37"/>
</g>
<g opacity="0.6" filter="url(#filter2_f_186_13583)">
<circle cx="250.814" cy="634.512" r="303.038" fill="#3719F0" fill-opacity="0.62"/>
</g>
<g filter="url(#filter3_f_186_13583)">
<path d="M443.424 471.281C295.331 470.081 99.8728 532.438 125.055 895.786C537.956 920.169 1369.99 968.455 1394.94 966.537C1426.11 964.138 1665.34 643.361 1674.33 634.367C1683.33 625.374 1723.5 543.83 1465.68 333.976C1207.87 124.121 990.228 285.559 839.138 391.536C688.047 497.513 591.517 472.48 443.424 471.281Z" fill="#6849E1" fill-opacity="0.58"/>
</g>
<mask id="mask1_186_13583" style="mask-type:alpha" maskUnits="userSpaceOnUse" x="763" y="186" width="685" height="612">
<ellipse cx="1105.74" cy="492.109" rx="380.402" ry="256.46" transform="rotate(-36.2854 1105.74 492.109)" fill="url(#paint0_radial_186_13583)"/>
</mask>
<g mask="url(#mask1_186_13583)">
<path d="M789.753 713.203C742.297 731.417 731.87 750.075 703.799 793.806L1160.58 963.509C1276.98 786.426 1478.71 447.316 1398.6 415.257C1314.78 381.712 1187 395.684 1108.63 434.084C1030.27 472.484 967.115 600.687 937.445 646.314C909.957 688.587 837.209 694.988 789.753 713.203Z" fill="#7C7AEA"/>
<g filter="url(#filter4_f_186_13583)">
<path d="M789.753 712.417C742.297 730.632 731.87 749.29 703.799 793.02L1160.58 962.723C1276.98 785.641 1450.04 394.93 1369.93 362.871C1306.59 337.521 1191.46 398.454 1132.45 433.466C1113.37 444.785 1126.87 457.614 1114.91 458.421C1027.84 464.298 967.115 599.902 937.445 645.529C909.957 687.802 837.209 694.203 789.753 712.417Z" fill="#7C7AEA"/>
</g>
<g filter="url(#filter5_f_186_13583)">
<path d="M777.192 706.923C729.736 725.137 719.309 743.796 691.238 787.526L1160.58 963.51C1276.98 786.427 1378.22 428.475 1298.11 396.417C1222.97 366.345 1179.47 402.049 1118.71 436.941C1111.69 440.972 1123.03 442.669 1114.92 446.646C1036.55 485.046 954.554 594.407 924.884 640.035C897.396 682.307 824.648 688.708 777.192 706.923Z" fill="#7C7AEA"/>
</g>
<g filter="url(#filter6_f_186_13583)">
<path d="M764.631 700.647C717.175 718.862 706.748 737.52 678.676 781.25L1160.58 963.514C1276.97 786.432 1497.55 384.516 1417.44 352.458C1349.83 325.399 1230.23 391.136 1156 420.114C1138.2 427.062 1127.71 440.795 1112.56 448.221C1034.19 486.621 941.992 588.132 912.322 633.759C884.834 676.032 812.087 682.433 764.631 700.647Z" fill="#7C7AEA"/>
</g>
<g filter="url(#filter7_f_186_13583)">
<path d="M724.592 683.495C677.136 701.71 666.709 720.368 638.638 764.098L1133.1 958.924C1249.5 781.841 1350.74 423.89 1270.64 391.831C1208.51 366.968 1161.27 418.126 1131.66 436.519C1121.33 442.942 1150.97 453.947 1128.52 453.947C1041.77 453.947 1058.17 545.259 915.376 605.466C868.913 625.057 772.048 665.281 724.592 683.495Z" fill="#7C7AEA"/>
</g>
</g>
<g opacity="0.6" filter="url(#filter8_f_186_13583)">
<circle cx="1212.92" cy="623.129" r="129.144" fill="#34BCCC"/>
</g>
<g opacity="0.3" filter="url(#filter9_f_186_13583)">
<ellipse cx="642.172" cy="626.267" rx="289.299" ry="129.144" fill="black"/>
</g>
<g opacity="0.6" filter="url(#filter10_f_186_13583)">
<ellipse cx="912.477" cy="589.04" rx="129.144" ry="38.2466" transform="rotate(-41.2443 912.477 589.04)" fill="#28009B"/>
</g>
<mask id="mask2_186_13583" style="mask-type:alpha" maskUnits="userSpaceOnUse" x="-359" y="196" width="1158" height="845">
<path d="M-175.731 1040.14C-224.863 756.928 -355.552 329.519 -359 315.589L798.087 196.738L756.911 876.96L-175.731 1040.14Z" fill="url(#paint1_linear_186_13583)"/>
</mask>
<g mask="url(#mask2_186_13583)">
<path d="M169.216 453.708C274.406 435.303 373.357 479.899 382.78 533.753C392.203 587.608 361.987 665.732 249.128 685.479C193.2 695.265 131.593 743.146 60.4541 727.954C-11.9627 712.489 -9.43389 636.347 -14.1872 609.18C-23.6101 555.326 64.0265 472.113 169.216 453.708Z" fill="#7371FF"/>
<g filter="url(#filter11_f_186_13583)">
<path d="M168.763 458.541C281.577 438.803 371.349 476.311 379.449 522.602C387.548 568.894 355.614 637.09 242.8 656.829C186.896 666.61 124.642 710.635 54.1892 699.205C-17.5292 687.568 -13.2019 621.742 -17.2878 598.391C-25.3873 552.099 55.9498 478.28 168.763 458.541Z" fill="#7371FF"/>
</g>
<g filter="url(#filter12_f_186_13583)">
<path d="M172.181 457.942C298.623 435.818 400.253 483.644 410.239 540.716C420.224 597.788 385.623 681.031 259.181 703.154C196.523 714.118 128.31 772.381 48.8937 756.985C-31.9488 741.314 -29.1814 655.633 -34.2187 626.843C-44.2044 569.771 45.7393 480.065 172.181 457.942Z" fill="#7371FF"/>
</g>
<g filter="url(#filter13_f_186_13583)">
<path d="M187.957 462.144C346.516 448.828 488.778 500.225 500.465 567.02C512.152 633.815 445.552 719.888 293.91 746.42C218.764 759.568 134.9 849.27 39.8007 831.628C-57.0074 813.67 -52.2815 718.954 -58.177 685.259C-69.864 618.464 4.27418 477.568 187.957 462.144Z" fill="#7371FF"/>
</g>
<g filter="url(#filter14_f_186_13583)">
<path d="M245.282 479.977C408.561 451.409 564.184 512.873 575.611 578.179C587.037 643.485 514.075 729.012 350.796 757.58C269.884 771.738 176.002 813.85 74.1805 798.149C-29.4698 782.166 -22.8027 689.203 -28.5668 656.26C-39.9933 590.954 82.0037 508.546 245.282 479.977Z" fill="#7371FF"/>
</g>
<g filter="url(#filter15_f_186_13583)">
<path d="M313.394 494.931C482.128 465.408 642.79 528.013 654.477 594.808C666.164 661.603 590.633 749.238 421.9 778.761C338.284 793.391 241.219 836.646 136.057 820.766C29.0051 804.6 36.0603 709.476 30.1648 675.781C18.4778 608.986 144.66 524.454 313.394 494.931Z" fill="#7371FF"/>
</g>
<g filter="url(#filter16_f_186_13583)">
<path d="M184.625 506.511C332.267 480.678 474.772 546.461 486.459 613.256C498.146 680.051 433.636 765.757 285.994 791.59C212.83 804.391 127.104 837.702 34.3599 819.649C-60.0508 801.271 -55.87 706.65 -61.7656 672.956C-73.4526 606.161 36.9832 532.344 184.625 506.511Z" fill="#7371FF"/>
</g>
</g>
</g>
</g>
<defs>
<filter id="filter0_d_186_13583" x="-4" y="121.185" width="1520" height="853.407" filterUnits="userSpaceOnUse" color-interpolation-filters="sRGB">
<feFlood flood-opacity="0" result="BackgroundImageFix"/>
<feColorMatrix in="SourceAlpha" type="matrix" values="0 0 0 0 0 0 0 0 0 0 0 0 0 0 0 0 0 0 127 0" result="hardAlpha"/>
<feOffset dy="4"/>
<feGaussianBlur stdDeviation="2"/>
<feComposite in2="hardAlpha" operator="out"/>
<feColorMatrix type="matrix" values="0 0 0 0 0 0 0 0 0 0 0 0 0 0 0 0 0 0 0.25 0"/>
<feBlend mode="normal" in2="BackgroundImageFix" result="effect1_dropShadow_186_13583"/>
<feBlend mode="normal" in="SourceGraphic" in2="effect1_dropShadow_186_13583" result="shape"/>
</filter>
<filter id="filter1_f_186_13583" x="-176.144" y="-202.717" width="1556.32" height="1346.74" filterUnits="userSpaceOnUse" color-interpolation-filters="sRGB">
<feFlood flood-opacity="0" result="BackgroundImageFix"/>
<feBlend mode="normal" in="SourceGraphic" in2="BackgroundImageFix" result="shape"/>
<feGaussianBlur stdDeviation="161.951" result="effect1_foregroundBlur_186_13583"/>
</filter>
<filter id="filter2_f_186_13583" x="-376.126" y="7.57153" width="1253.88" height="1253.88" filterUnits="userSpaceOnUse" color-interpolation-filters="sRGB">
<feFlood flood-opacity="0" result="BackgroundImageFix"/>
<feBlend mode="normal" in="SourceGraphic" in2="BackgroundImageFix" result="shape"/>
<feGaussianBlur stdDeviation="161.951" result="effect1_foregroundBlur_186_13583"/>
</filter>
<filter id="filter3_f_186_13583" x="0.203812" y="109.122" width="1804.44" height="980.113" filterUnits="userSpaceOnUse" color-interpolation-filters="sRGB">
<feFlood flood-opacity="0" result="BackgroundImageFix"/>
<feBlend mode="normal" in="SourceGraphic" in2="BackgroundImageFix" result="shape"/>
<feGaussianBlur stdDeviation="61.3213" result="effect1_foregroundBlur_186_13583"/>
</filter>
<filter id="filter4_f_186_13583" x="688.075" y="341.143" width="718.04" height="637.304" filterUnits="userSpaceOnUse" color-interpolation-filters="sRGB">
<feFlood flood-opacity="0" result="BackgroundImageFix"/>
<feBlend mode="normal" in="SourceGraphic" in2="BackgroundImageFix" result="shape"/>
<feGaussianBlur stdDeviation="7.86171" result="effect1_foregroundBlur_186_13583"/>
</filter>
<filter id="filter5_f_186_13583" x="669.225" y="363.115" width="679.574" height="622.407" filterUnits="userSpaceOnUse" color-interpolation-filters="sRGB">
<feFlood flood-opacity="0" result="BackgroundImageFix"/>
<feBlend mode="normal" in="SourceGraphic" in2="BackgroundImageFix" result="shape"/>
<feGaussianBlur stdDeviation="11.0064" result="effect1_foregroundBlur_186_13583"/>
</filter>
<filter id="filter6_f_186_13583" x="650.374" y="317.759" width="812.492" height="674.058" filterUnits="userSpaceOnUse" color-interpolation-filters="sRGB">
<feFlood flood-opacity="0" result="BackgroundImageFix"/>
<feBlend mode="normal" in="SourceGraphic" in2="BackgroundImageFix" result="shape"/>
<feGaussianBlur stdDeviation="14.1511" result="effect1_foregroundBlur_186_13583"/>
</filter>
<filter id="filter7_f_186_13583" x="597.757" y="344.265" width="742.432" height="655.539" filterUnits="userSpaceOnUse" color-interpolation-filters="sRGB">
<feFlood flood-opacity="0" result="BackgroundImageFix"/>
<feBlend mode="normal" in="SourceGraphic" in2="BackgroundImageFix" result="shape"/>
<feGaussianBlur stdDeviation="20.4404" result="effect1_foregroundBlur_186_13583"/>
</filter>
<filter id="filter8_f_186_13583" x="917.106" y="327.316" width="591.625" height="591.625" filterUnits="userSpaceOnUse" color-interpolation-filters="sRGB">
<feFlood flood-opacity="0" result="BackgroundImageFix"/>
<feBlend mode="normal" in="SourceGraphic" in2="BackgroundImageFix" result="shape"/>
<feGaussianBlur stdDeviation="83.3341" result="effect1_foregroundBlur_186_13583"/>
</filter>
<filter id="filter9_f_186_13583" x="186.204" y="330.454" width="911.935" height="591.625" filterUnits="userSpaceOnUse" color-interpolation-filters="sRGB">
<feFlood flood-opacity="0" result="BackgroundImageFix"/>
<feBlend mode="normal" in="SourceGraphic" in2="BackgroundImageFix" result="shape"/>
<feGaussianBlur stdDeviation="83.3341" result="effect1_foregroundBlur_186_13583"/>
</filter>
<filter id="filter10_f_186_13583" x="645.46" y="332.481" width="534.035" height="513.119" filterUnits="userSpaceOnUse" color-interpolation-filters="sRGB">
<feFlood flood-opacity="0" result="BackgroundImageFix"/>
<feBlend mode="normal" in="SourceGraphic" in2="BackgroundImageFix" result="shape"/>
<feGaussianBlur stdDeviation="83.3341" result="effect1_foregroundBlur_186_13583"/>
</filter>
<filter id="filter11_f_186_13583" x="-23.7712" y="447.229" width="410.337" height="259.784" filterUnits="userSpaceOnUse" color-interpolation-filters="sRGB">
<feFlood flood-opacity="0" result="BackgroundImageFix"/>
<feBlend mode="normal" in="SourceGraphic" in2="BackgroundImageFix" result="shape"/>
<feGaussianBlur stdDeviation="2.96385" result="effect1_foregroundBlur_186_13583"/>
</filter>
<filter id="filter12_f_186_13583" x="-55.7221" y="431.678" width="488.324" height="348.627" filterUnits="userSpaceOnUse" color-interpolation-filters="sRGB">
<feFlood flood-opacity="0" result="BackgroundImageFix"/>
<feBlend mode="normal" in="SourceGraphic" in2="BackgroundImageFix" result="shape"/>
<feGaussianBlur stdDeviation="10.3735" result="effect1_foregroundBlur_186_13583"/>
</filter>
<filter id="filter13_f_186_13583" x="-89.0018" y="430.393" width="620.411" height="433.163" filterUnits="userSpaceOnUse" color-interpolation-filters="sRGB">
<feFlood flood-opacity="0" result="BackgroundImageFix"/>
<feBlend mode="normal" in="SourceGraphic" in2="BackgroundImageFix" result="shape"/>
<feGaussianBlur stdDeviation="14.8193" result="effect1_foregroundBlur_186_13583"/>
</filter>
<filter id="filter14_f_186_13583" x="-109.332" y="392.764" width="766.125" height="488.863" filterUnits="userSpaceOnUse" color-interpolation-filters="sRGB">
<feFlood flood-opacity="0" result="BackgroundImageFix"/>
<feBlend mode="normal" in="SourceGraphic" in2="BackgroundImageFix" result="shape"/>
<feGaussianBlur stdDeviation="40.012" result="effect1_foregroundBlur_186_13583"/>
</filter>
<filter id="filter15_f_186_13583" x="-169.164" y="288.846" width="1023.39" height="733.949" filterUnits="userSpaceOnUse" color-interpolation-filters="sRGB">
<feFlood flood-opacity="0" result="BackgroundImageFix"/>
<feBlend mode="normal" in="SourceGraphic" in2="BackgroundImageFix" result="shape"/>
<feGaussianBlur stdDeviation="99.2891" result="effect1_foregroundBlur_186_13583"/>
</filter>
<filter id="filter16_f_186_13583" x="-154.493" y="408.884" width="734.173" height="507.891" filterUnits="userSpaceOnUse" color-interpolation-filters="sRGB">
<feFlood flood-opacity="0" result="BackgroundImageFix"/>
<feBlend mode="normal" in="SourceGraphic" in2="BackgroundImageFix" result="shape"/>
<feGaussianBlur stdDeviation="45.9397" result="effect1_foregroundBlur_186_13583"/>
</filter>
<radialGradient id="paint0_radial_186_13583" cx="0" cy="0" r="1" gradientUnits="userSpaceOnUse" gradientTransform="translate(1170.93 451.042) rotate(102.359) scale(304.586 440.209)">
<stop offset="0.120131" stop-color="#C4C4C4"/>
<stop offset="0.692585" stop-color="#C4C4C4" stop-opacity="0"/>
</radialGradient>
<linearGradient id="paint1_linear_186_13583" x1="117.255" y1="417.781" x2="215.437" y2="881.134" gradientUnits="userSpaceOnUse">
<stop stop-color="#C4C4C4"/>
<stop offset="1" stop-color="#C4C4C4" stop-opacity="0"/>
</linearGradient>
</defs>
</svg>
