<svg width="39" height="40" viewBox="0 0 39 40" fill="none" xmlns="http://www.w3.org/2000/svg">
<path d="M38.3384 32.2503L18.0997 0L5.5889 21.8137C5.41032 22.1251 5.51831 22.5223 5.82996 22.7004C6.15031 22.8834 6.25389 23.2963 6.05786 23.6089L0.826446 31.9509C0.563968 32.3695 0.733047 32.9234 1.18451 33.1241C1.54586 33.2847 1.97036 33.1616 2.18971 32.8326L4.1804 29.8465C4.32723 29.6263 4.62117 29.5602 4.84816 29.6964C5.07987 29.8354 5.15762 30.1343 5.02302 30.3686L1.23802 36.9573C1.00434 37.3641 1.12607 37.8824 1.5164 38.1426C1.94334 38.4273 2.52183 38.2934 2.78038 37.8502L7.87168 29.1222C7.98139 28.9342 8.2123 28.8548 8.41447 28.9357C8.66291 29.035 8.76562 29.3315 8.63191 29.5633L6.63824 33.019C6.51111 33.2393 6.56394 33.5195 6.7626 33.6784C7.01197 33.8779 7.38092 33.8047 7.53519 33.5251L9.87259 29.2885L18.0997 15.1379L24.6814 25.9977H16.7834L12.9989 32.4148L38.3384 32.2503Z" fill="#D4FF00"/>
<path d="M4.70342 23.5919C5.00624 24.3332 4.41123 25.0612 3.94898 25.5033C3.4139 26.1205 2.91433 25.2348 3.12627 24.6807C3.3382 24.1265 4.32489 22.6654 4.70342 23.5919Z" fill="#D4FF00"/>
<path d="M1.27104 38.9035C1.5022 39.4445 1.22753 39.4393 0.850207 39.772C0.411789 40.2347 0.0252096 39.5903 0.203673 39.1791C0.382136 38.7678 0.982098 38.2272 1.27104 38.9035Z" fill="#D4FF00"/>
</svg>
