<svg width="60" height="48" viewBox="0 0 60 48" fill="none" xmlns="http://www.w3.org/2000/svg">
<path d="M49.1748 6.54712C49.1595 6.51743 49.1341 6.49417 49.1032 6.4815C45.5291 4.84168 41.7575 3.67236 37.8826 3.00281C37.8474 2.99626 37.811 3.00098 37.7787 3.0163C37.7463 3.03162 37.7196 3.05675 37.7023 3.08812C37.1887 4.02027 36.7225 4.97773 36.3054 5.95687C32.1285 5.32282 27.8799 5.32282 23.703 5.95687C23.2832 4.97525 22.8095 4.01754 22.2841 3.08812C22.2661 3.05743 22.2392 3.03288 22.2071 3.01766C22.1749 3.00244 22.1389 2.99727 22.1037 3.00281C18.2284 3.67096 14.4565 4.84036 10.883 6.48159C10.8524 6.49456 10.8266 6.5167 10.8091 6.54497C3.66261 17.2173 1.70492 27.6272 2.6653 37.9082C2.668 37.9334 2.67574 37.9578 2.68806 37.9799C2.70038 38.0021 2.71703 38.0215 2.73702 38.0371C6.89834 41.1182 11.5528 43.4701 16.5019 44.9923C16.5367 45.0028 16.5739 45.0023 16.6085 44.991C16.6431 44.9796 16.6734 44.958 16.6953 44.9289C17.7582 43.4826 18.7001 41.9511 19.5112 40.35C19.5224 40.328 19.5288 40.304 19.5299 40.2793C19.5311 40.2547 19.527 40.2302 19.518 40.2072C19.509 40.1843 19.4952 40.1636 19.4776 40.1463C19.4599 40.1291 19.4388 40.1159 19.4157 40.1074C17.9305 39.5391 16.4926 38.8541 15.1156 38.0587C15.0906 38.044 15.0696 38.0233 15.0544 37.9986C15.0393 37.9738 15.0304 37.9457 15.0287 37.9168C15.027 37.8878 15.0325 37.8589 15.0446 37.8325C15.0567 37.8061 15.0751 37.7832 15.0982 37.7656C15.3872 37.5491 15.6763 37.3239 15.9522 37.0965C15.9767 37.0763 16.0064 37.0634 16.0379 37.0591C16.0693 37.0549 16.1014 37.0595 16.1303 37.0725C25.1518 41.1897 34.9188 41.1897 43.8335 37.0725C43.8625 37.0587 43.8949 37.0534 43.9268 37.0573C43.9588 37.0612 43.9889 37.074 44.0138 37.0944C44.2898 37.3218 44.5789 37.5491 44.87 37.7656C44.8932 37.783 44.9118 37.8058 44.9241 37.8321C44.9364 37.8583 44.9421 37.8872 44.9406 37.9162C44.9391 37.9452 44.9305 37.9733 44.9155 37.9982C44.9005 38.023 44.8797 38.0438 44.8548 38.0587C43.4809 38.8607 42.0417 39.5454 40.5526 40.1052C40.5295 40.114 40.5085 40.1276 40.491 40.1451C40.4734 40.1626 40.4598 40.1835 40.451 40.2066C40.4421 40.2297 40.4382 40.2545 40.4396 40.2792C40.441 40.3039 40.4475 40.328 40.4588 40.35C41.2836 41.9422 42.2241 43.4718 43.2727 44.9264C43.2939 44.9563 43.3241 44.9786 43.3588 44.9904C43.3935 45.0022 43.431 45.0028 43.4661 44.992C48.424 43.475 53.0866 41.1229 57.2531 38.0371C57.2734 38.0223 57.2903 38.0033 57.3027 37.9815C57.3151 37.9596 57.3226 37.9354 57.3249 37.9104C58.4746 26.0244 55.4 15.6998 49.1748 6.54712ZM20.8585 31.6481C18.1424 31.6481 15.9044 29.1556 15.9044 26.0945C15.9044 23.0333 18.099 20.5406 20.8585 20.5406C23.6396 20.5406 25.856 23.055 25.8126 26.0943C25.8126 29.1556 23.6179 31.6481 20.8585 31.6481ZM39.1754 31.6481C36.4594 31.6481 34.2214 29.1556 34.2214 26.0945C34.2214 23.0333 36.416 20.5406 39.1754 20.5406C41.9567 20.5406 44.1729 23.055 44.1295 26.0943C44.1295 29.1556 41.9567 31.6481 39.1754 31.6481Z" fill="white"/>
</svg>
