<svg width="60" height="48" viewBox="0 0 60 48" fill="none" xmlns="http://www.w3.org/2000/svg">
<path d="M16.9219 6.96204C7.57622 6.96204 0 14.5906 0 24C0 33.4094 7.57678 41.0379 16.9219 41.0379C26.267 41.0379 33.8438 33.4099 33.8438 24C33.8438 14.59 26.2679 6.96204 16.9219 6.96204ZM43.9453 7.9601C39.2723 7.9601 35.4848 15.1431 35.4848 24.0003C35.4848 32.8574 39.2729 40.0409 43.9459 40.0409C48.6188 40.0409 52.4069 32.8579 52.4069 24.0003H52.4062C52.4062 15.1406 48.6188 7.9601 43.9455 7.9601H43.9453ZM57.024 9.63082C55.3809 9.63082 54.0488 16.0647 54.0488 24.0003C54.0488 31.9358 55.3801 38.3697 57.024 38.3697C58.6679 38.3697 60 31.9341 60 24C60 16.0641 58.6673 9.63082 57.0242 9.63082H57.024Z" fill="white"/>
</svg>
