<svg width="983" height="935" viewBox="0 0 983 935" fill="none" xmlns="http://www.w3.org/2000/svg">
<path d="M541.275 324.493C541.275 191.058 433.153 82.8891 299.78 82.8891C166.406 82.8891 58.2838 191.058 58.2839 324.493C58.2839 457.927 166.406 566.096 299.78 566.096C433.154 566.096 541.276 457.927 541.275 324.493Z" stroke="#1C1C1C" stroke-width="3"/>
<path d="M514.949 280.389C514.949 146.955 406.827 38.7859 273.453 38.7859C140.079 38.7859 31.9572 146.955 31.9572 280.389C31.9572 413.824 140.079 521.993 273.453 521.993C406.827 521.993 514.949 413.824 514.949 280.389Z" stroke="#1C1C1C" stroke-width="3"/>
<path d="M484.5 243.147C484.5 109.712 376.378 1.54315 243.005 1.54316C109.631 1.54317 1.5087 109.712 1.50871 243.147C1.50872 376.581 109.631 484.75 243.005 484.75C376.378 484.75 484.5 376.581 484.5 243.147Z" stroke="#1C1C1C" stroke-width="3"/>
<path d="M589.875 346.778C589.875 201.047 470.884 82.8901 324.079 82.8901C177.274 82.8902 58.2838 201.047 58.2838 346.778C58.2838 492.509 177.274 610.666 324.079 610.666C470.884 610.666 589.875 492.509 589.875 346.778Z" stroke="#1C1C1C" stroke-width="3"/>
<path d="M626.324 391.347C626.324 245.615 507.333 127.459 360.529 127.459C213.724 127.459 94.7331 245.615 94.7331 391.347C94.7331 537.078 213.724 655.235 360.529 655.235C507.333 655.235 626.324 537.078 626.324 391.347Z" stroke="#1C1C1C" stroke-width="3"/>
<path d="M662.773 431.864C662.773 286.133 543.782 167.976 396.978 167.976C250.173 167.976 131.182 286.133 131.182 431.864C131.182 577.595 250.173 695.752 396.978 695.752C543.783 695.752 662.773 577.595 662.773 431.864Z" stroke="#1C1C1C" stroke-width="3"/>
<path d="M703.273 468.329C703.273 320.37 581.573 200.389 431.402 200.389C281.232 200.389 159.532 320.37 159.532 468.329C159.532 616.288 281.232 736.269 431.402 736.269C581.573 736.269 703.273 616.288 703.273 468.329Z" stroke="#1C1C1C" stroke-width="3"/>
<path d="M741.835 485.179C741.835 322.021 607.527 189.717 441.802 189.717C276.076 189.717 141.768 322.021 141.768 485.179C141.768 648.337 276.076 780.641 441.802 780.641C607.527 780.641 741.835 648.337 741.835 485.179Z" stroke="#1C1C1C" stroke-width="3"/>
<path d="M784.07 504.781C784.07 336.221 644.276 199.519 471.759 199.519C299.242 199.519 159.447 336.222 159.447 504.781C159.447 673.341 299.242 810.044 471.759 810.044C644.276 810.044 784.07 673.341 784.07 504.781Z" stroke="#1C1C1C" stroke-width="3"/>
<path d="M827.231 510.6C823.87 323.523 665.937 174.585 474.406 178.011C282.875 181.437 130.393 335.927 133.754 523.003C137.114 710.08 295.047 859.018 486.578 855.592C678.109 852.166 830.591 697.676 827.231 510.6Z" stroke="#1C1C1C" stroke-width="3"/>
<path d="M874.958 536.759C874.958 349.653 719.726 197.915 528.164 197.915C336.602 197.915 181.37 349.653 181.37 536.76C181.37 723.866 336.602 875.604 528.164 875.604C719.726 875.604 874.958 723.866 874.958 536.759Z" stroke="#1C1C1C" stroke-width="3"/>
<path d="M919.507 551.401C919.507 364.295 764.274 212.556 572.712 212.556C381.151 212.556 225.918 364.295 225.918 551.401C225.918 738.508 381.151 890.246 572.713 890.246C764.274 890.246 919.507 738.508 919.507 551.401Z" stroke="#1C1C1C" stroke-width="3"/>
<path d="M980.511 594.203C980.511 407.097 825.279 255.358 633.717 255.358C442.155 255.358 286.923 407.097 286.923 594.203C286.923 781.309 442.155 933.048 633.717 933.048C825.279 933.048 980.511 781.309 980.511 594.203Z" stroke="#1C1C1C" stroke-width="3"/>
</svg>
