<svg width="586" height="320" viewBox="0 0 586 320" fill="none" xmlns="http://www.w3.org/2000/svg">
<rect width="586" height="320" rx="12" fill="#313131"/>
<g opacity="0.2">
<mask id="mask0_514_5249" style="mask-type:alpha" maskUnits="userSpaceOnUse" x="-340" y="-425" width="983" height="935">
<g opacity="0.6">
<path d="M201.276 -100.508C201.276 -233.942 93.1536 -342.111 -40.2203 -342.111C-173.594 -342.111 -281.716 -233.942 -281.716 -100.508C-281.716 32.9268 -173.594 141.096 -40.2202 141.096C93.1536 141.096 201.276 32.9268 201.276 -100.508Z" stroke="#D4FF00" stroke-width="3"/>
<path d="M174.949 -144.61C174.949 -278.045 66.8269 -386.214 -66.5469 -386.214C-199.921 -386.214 -308.043 -278.045 -308.043 -144.61C-308.043 -11.1757 -199.921 96.9932 -66.5469 96.9931C66.8269 96.9931 174.949 -11.1758 174.949 -144.61Z" stroke="#D4FF00" stroke-width="3"/>
<path d="M144.5 -181.853C144.5 -315.288 36.3784 -423.457 -96.9954 -423.457C-230.369 -423.457 -338.491 -315.288 -338.491 -181.853C-338.491 -48.4189 -230.369 59.75 -96.9954 59.75C36.3784 59.75 144.5 -48.4189 144.5 -181.853Z" stroke="#D4FF00" stroke-width="3"/>
<path d="M249.874 -78.2221C249.874 -223.953 130.884 -342.11 -15.921 -342.11C-162.726 -342.11 -281.716 -223.953 -281.716 -78.222C-281.716 67.5092 -162.726 185.666 -15.9209 185.666C130.884 185.666 249.874 67.5091 249.874 -78.2221Z" stroke="#D4FF00" stroke-width="3"/>
<path d="M286.324 -33.6537C286.324 -179.385 167.333 -297.542 20.5285 -297.542C-126.276 -297.542 -245.267 -179.385 -245.267 -33.6537C-245.267 112.078 -126.276 230.234 20.5286 230.234C167.333 230.234 286.324 112.078 286.324 -33.6537Z" stroke="#D4FF00" stroke-width="3"/>
<path d="M322.773 6.86397C322.773 -138.867 203.782 -257.024 56.9775 -257.024C-89.8274 -257.024 -208.818 -138.867 -208.818 6.86401C-208.818 152.595 -89.8274 270.752 56.9775 270.752C203.782 270.752 322.773 152.595 322.773 6.86397Z" stroke="#D4FF00" stroke-width="3"/>
<path d="M363.272 43.3288C363.272 -104.63 241.573 -224.611 91.4021 -224.611C-58.7683 -224.611 -180.468 -104.63 -180.468 43.3288C-180.468 191.287 -58.7683 311.269 91.4021 311.269C241.573 311.269 363.273 191.287 363.272 43.3288Z" stroke="#D4FF00" stroke-width="3"/>
<path d="M401.835 60.1787C401.835 -102.979 267.527 -235.283 101.802 -235.283C-63.9242 -235.283 -198.232 -102.979 -198.232 60.1788C-198.232 223.336 -63.9242 355.641 101.802 355.641C267.527 355.641 401.835 223.336 401.835 60.1787Z" stroke="#D4FF00" stroke-width="3"/>
<path d="M444.07 79.7813C444.07 -88.7786 304.276 -225.481 131.759 -225.481C-40.7584 -225.481 -180.553 -88.7785 -180.553 79.7814C-180.553 248.341 -40.7583 385.044 131.759 385.044C304.276 385.044 444.07 248.341 444.07 79.7813Z" stroke="#D4FF00" stroke-width="3"/>
<path d="M487.231 85.5996C483.87 -101.477 325.938 -250.415 134.406 -246.989C-57.1249 -243.563 -209.607 -89.0731 -206.246 98.0032C-202.886 285.08 -44.953 434.018 146.578 430.592C338.109 427.166 490.591 272.676 487.231 85.5996Z" stroke="#D4FF00" stroke-width="3"/>
<path d="M534.958 111.759C534.958 -75.347 379.726 -227.085 188.164 -227.085C-3.39825 -227.085 -158.63 -75.3469 -158.63 111.76C-158.63 298.866 -3.39819 450.604 188.164 450.604C379.726 450.604 534.958 298.866 534.958 111.759Z" stroke="#D4FF00" stroke-width="3"/>
<path d="M579.507 126.401C579.507 -60.7053 424.274 -212.444 232.712 -212.444C41.1506 -212.444 -114.082 -60.7053 -114.082 126.401C-114.082 313.508 41.1506 465.246 232.713 465.246C424.274 465.246 579.507 313.508 579.507 126.401Z" stroke="#D4FF00" stroke-width="3"/>
<path d="M640.511 169.203C640.511 -17.9034 485.279 -169.642 293.717 -169.642C102.155 -169.642 -53.077 -17.9033 -53.0769 169.203C-53.0769 356.309 102.155 508.048 293.717 508.048C485.279 508.048 640.511 356.309 640.511 169.203Z" stroke="#D4FF00" stroke-width="3"/>
</g>
</mask>
<g mask="url(#mask0_514_5249)">
<rect y="0.000976562" width="586" height="320" fill="#D4FF00"/>
</g>
</g>
</svg>
