<svg width="590" height="321" viewBox="0 0 590 321" fill="none" xmlns="http://www.w3.org/2000/svg">
<rect y="1" width="586" height="320" rx="12" fill="#313131"/>
<g opacity="0.2">
<mask id="mask0_514_5226" style="mask-type:alpha" maskUnits="userSpaceOnUse" x="-54" y="-424" width="984" height="935">
<g opacity="0.6">
<path d="M387.734 -99.5058C387.734 -232.94 495.856 -341.109 629.23 -341.109C762.603 -341.109 870.725 -232.94 870.725 -99.5058C870.725 33.9287 762.603 142.098 629.23 142.098C495.856 142.098 387.734 33.9287 387.734 -99.5058Z" stroke="#D4FF00" stroke-width="3"/>
<path d="M414.06 -143.608C414.06 -277.043 522.182 -385.212 655.556 -385.212C788.93 -385.212 897.052 -277.043 897.052 -143.608C897.052 -10.1738 788.93 97.9951 655.556 97.9951C522.182 97.9951 414.06 -10.1738 414.06 -143.608Z" stroke="#D4FF00" stroke-width="3"/>
<path d="M444.509 -180.851C444.509 -314.286 552.631 -422.455 686.005 -422.455C819.379 -422.455 927.501 -314.286 927.501 -180.851C927.5 -47.417 819.379 60.7519 686.005 60.7519C552.631 60.7519 444.509 -47.417 444.509 -180.851Z" stroke="#D4FF00" stroke-width="3"/>
<path d="M339.135 -77.2201C339.135 -222.951 458.125 -341.108 604.93 -341.108C751.735 -341.108 870.726 -222.951 870.726 -77.2201C870.726 68.5111 751.735 186.668 604.93 186.668C458.125 186.668 339.135 68.5111 339.135 -77.2201Z" stroke="#D4FF00" stroke-width="3"/>
<path d="M302.685 -32.6517C302.685 -178.383 421.676 -296.54 568.481 -296.54C715.286 -296.54 834.276 -178.383 834.276 -32.6517C834.276 113.08 715.286 231.236 568.481 231.236C421.676 231.236 302.685 113.079 302.685 -32.6517Z" stroke="#D4FF00" stroke-width="3"/>
<path d="M266.236 7.86592C266.236 -137.865 385.227 -256.022 532.032 -256.022C678.837 -256.022 797.827 -137.865 797.827 7.86597C797.827 153.597 678.837 271.754 532.032 271.754C385.227 271.754 266.236 153.597 266.236 7.86592Z" stroke="#D4FF00" stroke-width="3"/>
<path d="M225.737 44.3307C225.737 -103.628 347.437 -223.609 497.607 -223.609C647.778 -223.609 769.478 -103.628 769.478 44.3308C769.478 192.289 647.778 312.27 497.607 312.27C347.437 312.27 225.737 192.289 225.737 44.3307Z" stroke="#D4FF00" stroke-width="3"/>
<path d="M187.174 61.1807C187.174 -101.977 321.482 -234.281 487.208 -234.281C652.933 -234.281 787.241 -101.977 787.241 61.1808C787.241 224.338 652.933 356.643 487.208 356.643C321.482 356.643 187.174 224.338 187.174 61.1807Z" stroke="#D4FF00" stroke-width="3"/>
<path d="M144.939 80.7833C144.939 -87.7766 284.734 -224.479 457.251 -224.479C629.768 -224.479 769.562 -87.7766 769.562 80.7834C769.562 249.343 629.768 386.046 457.251 386.046C284.734 386.046 144.939 249.343 144.939 80.7833Z" stroke="#D4FF00" stroke-width="3"/>
<path d="M101.779 86.6016C105.139 -100.475 263.072 -249.413 454.603 -245.987C646.134 -242.561 798.616 -88.0712 795.255 99.0052C791.895 286.082 633.962 435.02 442.431 431.594C250.9 428.168 98.418 273.678 101.779 86.6016Z" stroke="#D4FF00" stroke-width="3"/>
<path d="M54.0514 112.761C54.0514 -74.345 209.284 -226.084 400.846 -226.084C592.408 -226.084 747.64 -74.345 747.64 112.761C747.64 299.868 592.407 451.606 400.846 451.606C209.284 451.606 54.0514 299.868 54.0514 112.761Z" stroke="#D4FF00" stroke-width="3"/>
<path d="M9.50272 127.403C9.50273 -59.7034 164.735 -211.442 356.297 -211.442C547.859 -211.442 703.091 -59.7033 703.091 127.403C703.091 314.51 547.859 466.248 356.297 466.248C164.735 466.248 9.5027 314.509 9.50272 127.403Z" stroke="#D4FF00" stroke-width="3"/>
<path d="M-51.5019 170.205C-51.5018 -16.9014 103.73 -168.64 295.292 -168.64C486.854 -168.64 642.086 -16.9014 642.086 170.205C642.086 357.311 486.854 509.05 295.292 509.05C103.73 509.05 -51.5019 357.311 -51.5019 170.205Z" stroke="#D4FF00" stroke-width="3"/>
</g>
</mask>
<g mask="url(#mask0_514_5226)">
<rect width="586" height="320" transform="matrix(-1 0 0 1 589.012 0.987305)" fill="#03F2A0"/>
</g>
</g>
</svg>