<svg width="983" height="935" viewBox="0 0 983 935" fill="none" xmlns="http://www.w3.org/2000/svg">

<path fill-rule="evenodd" clip-rule="evenodd" d="M682.232 84.3462C549.687 84.3462 442.236 191.843 442.236 324.45C442.236 457.056 549.687 564.553 682.232 564.553C814.776 564.553 922.227 457.056 922.227 324.45C922.227 191.843 814.776 84.3462 682.232 84.3462ZM682.232 81.3462C548.029 81.3462 439.236 190.187 439.236 324.45C439.236 458.712 548.029 567.553 682.232 567.553C816.434 567.553 925.227 458.712 925.227 324.45C925.227 190.187 816.434 81.3462 682.232 81.3462Z" fill="#1C1C1C"  stroke-width="3"/>
<path fill-rule="evenodd" clip-rule="evenodd" d="M708.558 40.2429C576.013 40.2429 468.562 147.74 468.562 280.346C468.562 412.953 576.013 520.45 708.558 520.45C841.103 520.45 948.554 412.953 948.554 280.346C948.554 147.74 841.103 40.2429 708.558 40.2429ZM708.558 37.2429C574.355 37.2429 465.562 146.084 465.562 280.346C465.562 414.609 574.355 523.45 708.558 523.45C842.761 523.45 951.554 414.609 951.554 280.346C951.554 146.084 842.761 37.2429 708.558 37.2429Z" fill="#1C1C1C" stroke-width="3"/>
<path fill-rule="evenodd" clip-rule="evenodd" d="M739.007 3.00019C606.462 3.00018 499.011 110.497 499.011 243.104C499.011 375.71 606.462 483.207 739.007 483.207C871.551 483.207 979.003 375.71 979.003 243.104C979.003 110.497 871.551 3.0002 739.007 3.00019ZM739.007 0.00019238C604.804 0.000180647 496.011 108.841 496.011 243.104C496.011 377.366 604.804 486.207 739.007 486.207C873.21 486.207 982.003 377.366 982.003 243.104C982.003 108.841 873.21 0.000204112 739.007 0.00019238Z" fill="#1C1C1C" stroke-width="3"/>
<path fill-rule="evenodd" clip-rule="evenodd" d="M657.932 84.3472C511.945 84.3472 393.637 201.843 393.637 346.735C393.637 491.628 511.945 609.123 657.932 609.123C803.919 609.123 922.227 491.628 922.227 346.735C922.227 201.843 803.919 84.3472 657.932 84.3472ZM657.932 81.3472C510.309 81.3472 390.637 200.165 390.637 346.735C390.637 493.305 510.309 612.123 657.932 612.123C805.555 612.123 925.227 493.305 925.227 346.735C925.227 200.165 805.555 81.3472 657.932 81.3472Z" fill="#1C1C1C" stroke-width="3"/>
<path fill-rule="evenodd" clip-rule="evenodd" d="M621.483 128.916C475.496 128.916 357.187 246.411 357.187 391.304C357.187 536.196 475.496 653.692 621.483 653.692C767.469 653.692 885.778 536.196 885.778 391.304C885.778 246.411 767.469 128.916 621.483 128.916ZM621.483 125.916C473.86 125.916 354.187 244.734 354.187 391.304C354.187 537.873 473.859 656.692 621.483 656.692C769.106 656.692 888.778 537.873 888.778 391.304C888.778 244.734 769.106 125.916 621.483 125.916Z" fill="#1C1C1C" stroke-width="3"/>
<path fill-rule="evenodd" clip-rule="evenodd" d="M585.034 169.433C439.047 169.433 320.738 286.928 320.738 431.821C320.738 576.713 439.047 694.209 585.034 694.209C731.02 694.209 849.329 576.713 849.329 431.821C849.329 286.928 731.02 169.433 585.034 169.433ZM585.034 166.433C437.411 166.433 317.738 285.251 317.738 431.821C317.738 578.39 437.41 697.209 585.034 697.209C732.657 697.209 852.329 578.39 852.329 431.821C852.329 285.251 732.657 166.433 585.034 166.433Z" fill="#1C1C1C" stroke-width="3"/>
<path fill-rule="evenodd" clip-rule="evenodd" d="M550.609 201.846C401.247 201.846 280.239 321.176 280.239 468.286C280.239 615.396 401.246 734.726 550.609 734.726C699.972 734.726 820.979 615.396 820.979 468.286C820.979 321.176 699.972 201.846 550.609 201.846ZM550.609 198.846C399.631 198.846 277.239 319.478 277.239 468.286C277.239 617.093 399.631 737.726 550.609 737.726C701.587 737.726 823.979 617.093 823.979 468.286C823.979 319.479 701.587 198.846 550.609 198.846Z" fill="#1C1C1C" stroke-width="3"/>
<path fill-rule="evenodd" clip-rule="evenodd" d="M540.21 191.174C375.291 191.174 241.676 322.828 241.676 485.136C241.676 647.444 375.291 779.098 540.21 779.098C705.129 779.098 838.743 647.444 838.743 485.136C838.743 322.828 705.129 191.174 540.21 191.174ZM540.21 188.174C373.677 188.174 238.676 321.129 238.676 485.136C238.676 649.144 373.677 782.098 540.21 782.098C706.742 782.098 841.743 649.144 841.743 485.136C841.743 321.129 706.742 188.174 540.21 188.174Z" fill="#1C1C1C" stroke-width="3"/>
<path fill-rule="evenodd" clip-rule="evenodd" d="M510.253 200.976C338.532 200.976 199.441 337.039 199.441 504.738C199.441 672.438 338.532 808.501 510.253 808.501C681.973 808.501 821.064 672.438 821.064 504.738C821.064 337.039 681.974 200.976 510.253 200.976ZM510.253 197.976C336.939 197.976 196.441 335.318 196.441 504.738C196.441 674.159 336.939 811.501 510.253 811.501C683.566 811.501 824.064 674.159 824.064 504.738C824.064 335.318 683.566 197.976 510.253 197.976Z" fill="#1C1C1C" stroke-width="3"/>
<path fill-rule="evenodd" clip-rule="evenodd" d="M507.578 179.468C316.842 176.056 159.626 324.368 156.28 510.583C152.935 696.799 304.724 850.638 495.46 854.049C686.196 857.461 843.413 709.149 846.758 522.933C850.103 336.718 698.314 182.879 507.578 179.468ZM507.632 176.468C315.305 173.028 156.657 322.593 153.281 510.53C149.905 698.467 303.08 853.609 495.406 857.049C687.733 860.489 846.381 710.924 849.757 522.987C853.133 335.05 699.959 179.908 507.632 176.468Z" fill="#1C1C1C" stroke-width="3"/>
<path fill-rule="evenodd" clip-rule="evenodd" d="M453.848 199.372C263.081 199.372 108.553 350.471 108.553 536.716C108.553 722.962 263.081 874.061 453.847 874.061C644.614 874.062 799.142 722.962 799.142 536.717C799.142 350.471 644.614 199.372 453.848 199.372ZM453.848 196.372C261.49 196.372 105.553 348.749 105.553 536.716C105.553 724.684 261.49 877.061 453.847 877.061C646.205 877.062 802.142 724.684 802.142 536.717C802.142 348.749 646.205 196.372 453.848 196.372Z" fill="#1C1C1C" stroke-width="3"/>
<path fill-rule="evenodd" clip-rule="evenodd" d="M409.299 214.013C218.532 214.013 64.0047 365.113 64.0047 551.358C64.0047 737.604 218.532 888.703 409.299 888.703C600.065 888.703 754.593 737.604 754.593 551.358C754.593 365.113 600.065 214.013 409.299 214.013ZM409.299 211.013C216.941 211.013 61.0047 363.391 61.0047 551.358C61.0047 739.326 216.941 891.703 409.299 891.703C601.656 891.703 757.593 739.326 757.593 551.358C757.593 363.391 601.656 211.013 409.299 211.013Z" fill="#1C1C1C" stroke-width="3"/>
<path fill-rule="evenodd" clip-rule="evenodd" d="M348.294 256.815C157.528 256.815 3.00005 407.915 3.00003 594.16C3.00001 780.405 157.528 931.505 348.294 931.505C539.06 931.505 693.588 780.406 693.588 594.16C693.588 407.915 539.06 256.815 348.294 256.815ZM348.294 253.815C155.937 253.815 4.61865e-05 406.193 2.97539e-05 594.16C1.33213e-05 782.127 155.937 934.505 348.294 934.505C540.652 934.505 696.588 782.127 696.588 594.16C696.588 406.193 540.652 253.815 348.294 253.815Z" fill="#1C1C1C" stroke-width="3"/>
</svg>
